<svg width="571" height="725" viewBox="0 0 571 725" fill="none" xmlns="http://www.w3.org/2000/svg">
<path d="M516.381 231.564C516.381 231.564 516.344 231.631 516.314 231.668C512.576 236.131 508.469 240.27 504.036 244.043C477.723 265.222 443.142 278.974 404.826 281.392C404.655 281.392 404.521 281.392 404.343 281.392C404.172 281.408 404 281.408 403.829 281.392C400.108 281.6 396.514 281.705 392.831 281.705H97.4052V281.839H87.2773V156.391H360.721C361.838 160.097 363.759 163.512 366.347 166.392C373.52 174.421 388.276 182.078 418.556 181.945C448.723 181.803 462.795 174.287 469.239 166.392C470.568 164.785 471.681 163.011 472.551 161.116C473.035 161.012 473.555 160.945 474.039 160.87C474.523 160.796 475.178 160.699 475.736 160.632C477.388 160.424 479.01 160.216 480.595 160.082C491.906 158.876 500.799 158.802 500.799 158.802C491.125 160.632 486.734 163.668 484.695 166.392C482.284 169.703 483.46 172.598 483.46 172.598C484.249 170.217 487.731 168.185 492.799 166.392C494.801 165.7 497.041 165.045 499.496 164.427C500.702 164.115 501.982 163.802 503.291 163.527C509.773 162.083 517.222 160.908 524.738 159.94C524.794 159.927 524.853 159.927 524.909 159.94C525.951 162.076 526.844 164.212 527.67 166.422C528.086 167.59 528.496 168.766 528.845 169.971C529.084 170.663 529.292 171.348 529.5 172.04C529.947 173.766 530.363 175.493 530.706 177.212C531.508 181.088 532.026 185.018 532.254 188.969C532.588 201.94 528.726 216.666 516.381 231.564Z" fill="url(#paint0_linear_1770_41586)"/>
<g style="mix-blend-mode:overlay" opacity="0.5">
<path d="M366.347 166.392H97.3754V281.906H87.2773V156.391H360.721C361.838 160.097 363.759 163.512 366.347 166.392Z" fill="white"/>
</g>
<g style="mix-blend-mode:overlay" opacity="0.5">
<path d="M500.791 158.801C491.117 160.631 486.727 163.667 484.688 166.391H469.262C470.59 164.784 471.704 163.01 472.573 161.115V161.078L474.061 160.87C474.62 160.765 475.2 160.698 475.758 160.631C477.41 160.423 479.032 160.215 480.617 160.081C491.899 158.875 500.791 158.801 500.791 158.801Z" fill="white"/>
</g>
<g style="mix-blend-mode:overlay" opacity="0.5">
<path d="M527.652 166.392H492.789C494.791 165.7 497.031 165.045 499.486 164.427C500.692 164.115 501.972 163.802 503.281 163.527C509.763 162.083 517.212 160.907 524.728 159.94C524.784 159.926 524.843 159.926 524.899 159.94C525.933 162.053 526.826 164.181 527.652 166.392Z" fill="white"/>
</g>
<path opacity="0.1" d="M516.381 231.562C516.381 231.562 516.344 231.629 516.314 231.666C468.034 283.987 412.833 280.37 390.383 282.059L387.041 281.955L383.894 281.754C379.481 282.097 379.101 281.985 379.101 281.985L91.9805 282.156L93.253 223.942C93.253 223.942 93.6697 224.113 94.3617 224.425C95.0538 224.738 96.1551 225.318 97.3904 226.01C113.36 235.111 165.569 271.113 248.601 276.047C266.981 277.111 282.705 277.461 296.189 277.252H296.293C352.639 276.597 369.018 267.147 369.018 267.147C317.36 278.837 262.427 261.938 262.427 261.938C262.427 261.938 447.116 264.974 456.12 225.147C461.084 203.009 489.532 189.525 513.777 181.868C519.841 179.94 525.601 178.422 530.706 177.18C531.508 181.056 532.026 184.985 532.254 188.937C532.589 201.937 528.726 216.664 516.381 231.562Z" fill="white"/>
<path d="M522.416 89.9077C522.17 89.7366 521.97 89.558 521.761 89.424C506.968 79.1102 490.381 72.6287 472.551 69.1833C470.207 68.6996 468.622 67.695 469.656 64.4208C471.488 58.6908 473.019 52.8685 474.24 46.978C474.471 45.6218 475.024 44.3408 475.853 43.2428C476.681 42.1447 477.762 41.2616 479.003 40.6677C482.344 38.8743 485.209 33.5239 484.584 30.2496C483.592 24.8342 480.985 19.8455 477.105 15.9397C470.442 9.2557 462.125 4.45901 453.002 2.03911C439.377 -1.68162 426.213 -0.342155 413.726 6.31794C408.346 9.17546 404.484 13.7594 404.618 20.3525C404.692 25.1746 408.793 28.486 412.059 26.5884C420.952 21.4538 430.261 18.9386 440.679 19.8911C448.508 20.5832 455.473 22.7561 461.783 27.3326C462.847 28.1288 464.06 29.059 463.435 29.9892C462.75 31.0905 461.471 29.7808 460.645 29.3343C453.79 25.6653 446.139 23.736 438.365 23.716C431.66 23.6116 425.013 24.9649 418.883 27.6823C415.646 29.126 411.918 30.5771 410.608 34.8857C407.847 43.8154 384.094 111.748 381.334 120.849C380.738 122.814 380.537 124.853 383.782 124.302C386.848 123.781 407.818 119.54 429.472 128.767C430.336 129.132 431.638 129.913 431.571 130.94C424.814 131.491 353.927 117.076 368.728 160.445C369.145 161.673 371.548 161.77 371.436 159.835C371.02 152.394 383.797 140.435 414.991 147.728C386.066 144.193 347.133 166.517 410.102 174.353C423.378 176.013 438.96 175.417 446.826 171.377C452.95 168.244 461.292 154.819 451.968 144.855C450.755 143.561 450.762 141.923 451.38 139.892C453.486 133.135 455.101 126.2 456.656 119.309C457.035 117.612 457.4 115.893 457.757 114.167C459.521 105.788 461.173 97.3417 464.455 89.4761C465.794 90.6519 465.764 92.3039 465.519 93.8219C464.655 99.7155 463.763 105.654 462.691 111.51C461.947 115.618 462.832 117.962 465.727 118.408C484.933 121.385 501.52 129.169 514.483 144.134C514.483 144.134 515.347 145.064 516.656 146.82C517.036 147.304 517.4 147.854 517.862 148.442C518.145 148.822 518.42 149.238 518.725 149.648C520.109 151.468 521.365 153.383 522.483 155.378C522.891 155.997 523.262 156.641 523.592 157.305C524.088 158.168 524.534 159.031 524.931 159.895C525.973 162.03 526.866 164.166 527.692 166.376C528.109 167.544 528.518 168.72 528.868 169.926C529.106 170.618 529.314 171.302 529.523 171.994C531.196 177.488 532.122 183.183 532.276 188.924C532.626 201.924 528.764 216.65 516.418 231.548C516.418 231.548 516.381 231.615 516.351 231.652C512.613 236.115 508.506 240.255 504.073 244.028C477.76 265.206 443.179 278.958 404.863 281.376C404.692 281.376 404.558 281.376 404.38 281.376C404.209 281.392 404.037 281.392 403.866 281.376C400.146 281.585 396.551 281.689 392.868 281.689H97.4424V281.823H87.2773V295.068H341.172L341.552 295.173H341.589L341.894 295.277H406.635C414.884 295.303 423.126 294.798 431.31 293.766H431.415C454.676 290.784 477.125 283.262 497.487 271.628C506.405 266.49 514.802 260.497 522.557 253.731C533.253 244.505 542.495 233.717 549.972 221.733C553.853 214.961 556.875 207.732 558.968 200.212C560.947 191.64 561.978 182.876 562.042 174.078C562.28 124.845 530.349 96.2478 522.416 89.9077Z" fill="url(#paint1_linear_1770_41586)"/>
<path d="M299.247 364.945L88.7734 295.383L344.759 295.413L564.952 364.931L299.247 364.945Z" fill="url(#paint2_linear_1770_41586)"/>
<g style="mix-blend-mode:multiply" opacity="0.3">
<path d="M299.247 364.946L88.7734 295.384L217.243 295.361L207.204 300.942L408.242 364.931L299.247 364.946Z" fill="#322F84"/>
</g>
<g style="mix-blend-mode:multiply" opacity="0.3">
<path d="M358.816 300.994H105.747L88.7734 295.383L341.329 295.405L358.816 300.994Z" fill="#252855"/>
<path d="M564.951 364.93L299.247 364.945L267.375 354.408H531.636L564.951 364.93Z" fill="#322F84"/>
</g>
<path d="M566.687 579.015L148.649 435.945L120.26 471.768L120.223 471.843L85.7388 504.667L85.6719 504.771L85.8058 504.838C85.8556 504.836 85.9049 504.849 85.9472 504.875L289.53 579.015H566.687Z" fill="url(#paint3_linear_1770_41586)"/>
<g style="mix-blend-mode:multiply" opacity="0.5">
<path d="M289.553 579.001L429.579 578.942L193.253 506.596L218.48 504.788L120.26 471.822L85.6055 504.758L289.553 579.001Z" fill="#E94C40"/>
</g>
<g style="mix-blend-mode:multiply" opacity="0.4">
<path d="M537.845 569.051L262.422 569.133L289.553 579.015H566.688L537.845 569.051Z" fill="#991C1F"/>
<path d="M371.244 512.123L148.663 435.945L85.582 504.734L115.288 515.576L371.244 512.123Z" fill="#991C1F"/>
</g>
<path d="M564.952 364.93C564.947 370.3 564.569 375.663 563.821 380.981C563.257 384.916 562.495 388.821 561.536 392.679C561.224 393.954 560.884 395.229 560.517 396.504C560.122 397.836 559.698 399.19 559.274 400.522C559.232 400.679 559.175 400.831 559.103 400.976C558.679 402.278 558.225 403.551 557.741 404.823C556.722 407.599 555.591 410.323 554.37 413.009C553.378 415.137 552.331 417.253 551.23 419.356C550.694 420.398 550.121 421.418 549.533 422.467C548.655 424 547.747 425.525 546.78 427.058C545.812 428.591 544.89 430.035 543.87 431.523C542.851 433.011 541.638 434.693 540.47 436.248C539.673 437.357 538.825 438.429 537.977 439.508C536.927 440.84 535.878 442.112 534.777 443.385C534.033 444.263 533.289 445.111 532.544 445.937C531.8 446.763 530.989 447.664 530.2 448.512C528.526 450.32 526.77 452.076 524.991 453.803C524.403 454.368 523.808 454.941 523.183 455.529C521.568 457.062 519.901 458.506 518.197 459.994C517.208 460.872 516.188 461.721 515.139 462.569C514.291 463.254 513.442 463.931 512.564 464.608C511.232 465.687 509.848 466.706 508.456 467.756C508.404 467.756 508.375 467.808 508.315 467.837C507.043 468.775 505.77 469.675 504.468 470.583C504.333 470.688 504.192 470.782 504.044 470.866C502.6 471.856 501.067 472.846 499.579 473.843C498.09 474.84 496.55 475.77 495.025 476.67C493.499 477.571 491.907 478.516 490.322 479.394C488.908 480.183 487.486 480.979 486.043 481.716C485.447 482.051 484.83 482.363 484.205 482.676C481.459 484.09 478.624 485.451 475.766 486.724C475.631 486.803 475.489 486.87 475.342 486.925C473.727 487.669 472.083 488.339 470.475 489.016C468.868 489.693 467.328 490.296 465.743 490.913C465.289 491.085 464.864 491.256 464.44 491.397C462.952 491.963 461.464 492.498 459.908 493.042C458.122 493.659 456.314 494.284 454.498 494.85C452.683 495.415 450.822 495.981 448.977 496.524C447.131 497.067 445.256 497.544 443.403 498.013C441.55 498.481 439.608 498.98 437.711 499.404C435.813 499.828 433.99 500.223 432.129 500.595C432.018 500.595 431.876 500.595 431.765 500.647C429.897 501.019 428.044 501.354 426.132 501.666C424.219 501.979 422.59 502.262 420.774 502.515C420.097 502.604 419.42 502.716 418.765 502.775C417.574 502.946 416.361 503.11 415.17 503.229C412.849 503.512 410.527 503.735 408.205 503.936C406.196 504.107 404.187 504.248 402.148 504.36H402.029C400.302 504.442 398.576 504.531 396.82 504.583C394.468 504.673 392.124 504.695 389.743 504.695H85.5664V384.776C86.6857 390.902 87.4682 397.086 87.9105 403.298C88.476 413.664 93.4915 426.433 96.4904 433.227V431.36C87.4044 401.854 88.476 371.5 88.8481 364.93H564.952Z" fill="url(#paint4_linear_1770_41586)"/>
<g style="mix-blend-mode:overlay" opacity="0.5">
<path d="M87.9296 403.299C88.4952 413.665 93.4958 426.428 96.4947 433.222V491.153H85.5781V384.785C86.6851 390.911 87.47 397.091 87.9296 403.299V403.299Z" fill="white"/>
</g>
<g style="mix-blend-mode:overlay" opacity="0.5">
<path d="M549.184 364.93C549.184 365.071 549.184 365.212 549.124 365.354C549.124 365.778 549.043 366.232 548.983 366.768C548.947 366.858 548.927 366.953 548.924 367.05C548.871 367.452 548.782 367.847 548.73 368.241C548.388 370.474 547.986 372.706 547.48 374.983H96.5282V431.36C87.4421 401.854 88.5137 371.5 88.8858 364.93H549.184Z" fill="white"/>
</g>
<g style="mix-blend-mode:multiply" opacity="0.3">
<path d="M549.196 364.916C540.571 435.677 465.792 490.967 374.754 490.967H85.5938V504.659H389.696C486.502 504.659 564.972 442.099 564.972 364.916H549.196Z" fill="#253B7B"/>
</g>
<path opacity="0.07" d="M98.1038 419.633C98.1038 419.633 161.148 386.95 213.171 406.983C265.194 427.015 301.627 460.636 353.658 434.784C353.658 434.784 376.682 421.39 383.424 410.227C383.424 410.227 388.804 422.134 370.193 439.13C351.582 456.126 315.022 460.896 315.022 460.896C315.022 460.896 368.027 464.795 372.21 451.386C372.21 451.386 367.053 469.312 323.996 469.856C323.996 469.856 386.333 475.466 427.232 469.186C473.279 462.117 535.877 413.643 547.493 375.029C547.493 375.029 530.921 474.001 395.531 490.163L96.5039 491.198C96.5039 491.198 96.6081 418.659 98.1038 419.633Z" fill="white"/>
<g style="mix-blend-mode:hard-light" opacity="0.1">
<path d="M567.49 580.22H545.448H429.86L289.827 580.815L280.413 577.333L262.829 570.323L132.552 522.43H132.344L127.655 520.674L123.831 519.245H123.726L116.285 516.484L101.878 511.171H101.7V511.134H101.625L90.9766 507.234L195.559 507.748L207.666 507.822C207.666 507.822 249.457 509.162 282.177 516.752C303.661 521.79 321.215 529.514 320.493 541.309C320.361 543.137 320.406 544.974 320.627 546.793C321.803 556.966 328.217 565.04 339.231 570.382C347.952 574.654 359.538 577.244 373.744 577.824H373.99C376.609 577.965 379.333 577.995 382.175 577.928C392.505 577.75 402.808 576.827 413.005 575.167C416.421 574.654 419.866 574.029 423.423 573.344C430.076 572.035 436.818 571.112 443.664 570.412C464.56 568.306 485.768 568.827 504.528 570.412C524.96 572.116 545.251 575.222 565.257 579.707H565.466C566.21 579.878 566.775 580.019 567.118 580.086L567.49 580.22Z" fill="white"/>
</g>
<path opacity="0.07" d="M561.258 364.938H299.32C306.999 364.848 355.584 364.231 401.654 361.284L398.291 361.701C420.317 360.287 441.756 358.33 457.867 355.643L459.355 355.39C511.624 346.356 412.69 345.054 330.455 338.655C328.222 338.483 326.183 338.282 324.226 338.059C324.226 338.059 324.226 338.059 324.174 338.059C308.547 336.363 300.696 333.356 298.01 329.703C291.268 320.676 316.018 307.676 331.392 300.74C337.933 297.764 342.778 295.926 342.778 295.926L358.01 300.74L430.78 323.705L434.947 325.037L561.258 364.938Z" fill="white"/>
<path d="M307.125 578.961C306.403 579.074 305.692 579.243 304.996 579.467C299.594 579.951 294.251 578.477 289.109 581.647H288.863C288.417 581.647 286.824 581.841 286.259 582.451L286.028 582.525C284.936 582.87 283.825 583.156 282.702 583.381C282.099 583.493 281.868 583.545 281.541 584.125C281.541 584.125 281.541 584.17 281.541 584.2C281.541 584.229 281.541 584.2 281.541 584.2C281.541 584.081 281.586 583.82 281.414 584.654C281.05 586.35 280.417 586.484 283.483 585.956C286.698 585.405 291.051 585.844 294.578 585.785C297.257 585.733 300.13 585.837 302.831 585.785C302.608 585.829 302.28 585.874 302.087 585.896H301.625C300.137 585.896 297.614 585.896 295.509 585.971C288.625 586.142 264.999 587.749 257.431 587.868C256.539 587.854 255.655 588.045 254.848 588.426C257.706 588.479 260.72 588.746 263.54 588.724C274.293 588.65 279.227 588.605 289.972 587.638C292.882 587.377 295.866 587.556 298.79 587.31C302.459 587.266 306.12 587.251 309.789 587.236C309.671 587.286 309.572 587.372 309.506 587.481H309.454C309.314 587.402 309.157 587.361 308.996 587.361C308.836 587.361 308.678 587.402 308.539 587.481C308.598 587.481 308.494 587.615 307.75 588.077C306.735 588.614 305.62 588.936 304.475 589.022C303.502 589.137 302.517 589.137 301.544 589.022C300.629 588.943 299.741 588.672 298.939 588.226L298.82 588.3H298.641C297.379 588.396 296.132 588.631 294.921 588.999C294.653 589.096 294.392 589.185 294.177 589.297C293.432 589.208 292.606 589.081 291.81 588.999C291.045 588.925 290.275 588.925 289.511 588.999H289.28C287.792 589.282 286.437 590.651 285.105 591.076C284.175 591.366 284.451 591.016 283.721 590.681C283.461 588.337 270.475 589.133 269.501 589.193C268.213 589.245 270.825 591.82 266.301 591.701C265.956 591.647 265.627 591.521 265.335 591.331C265.043 591.141 264.794 590.892 264.604 590.599V590.555C264.53 590.391 264.783 590.8 264.552 590.406C264.061 589.528 261.94 589.833 261.055 590.138C261.055 590.138 260.988 590.093 260.965 590.086C260.563 589.93 260.162 589.751 259.76 589.58C258.954 589.549 258.155 589.75 257.46 590.16C257.008 590.25 256.583 590.444 256.218 590.726H256.099C255.637 590.577 256.843 590.927 255.593 590.54C254.801 590.327 253.991 590.185 253.174 590.116C251.113 589.922 248.516 590.026 246.983 590.986C245.451 591.404 243.866 591.589 242.28 591.537H242.191C241.033 591.479 239.877 591.677 238.805 592.117L238.909 592.207C239.54 592.52 240.236 592.683 240.94 592.683C241.354 592.615 241.777 592.615 242.191 592.683C242.533 592.802 242.704 593.1 242.503 593.814C243.396 594.707 243.552 594.886 244.855 594.677C247.087 594.305 249.721 593.68 251.991 594.789C251.991 594.789 252.028 594.96 252.065 595.131C252.326 596.225 253.249 596.567 250.577 596.18C249.29 596.002 246.521 596.567 245.011 597.081C247.715 597.525 250.459 597.687 253.196 597.565C254.462 597.565 255.727 597.46 257.006 597.393C257.004 597.413 257.004 597.433 257.006 597.453C257.081 597.661 256.954 597.259 257.118 597.758C257.282 598.257 257.632 599.715 258.376 599.522H258.926C260.154 599.574 262.781 599.261 264.507 599.447C265.795 599.589 267.849 601.099 268.972 599.395C268.972 599.328 269.069 599.179 269.396 598.889C270.267 598.1 278.884 596.396 279.628 597.319C280.901 598.911 281.861 598.42 283.349 598.398C284.837 598.376 286.43 598.346 287.933 598.286C289.436 598.227 287.345 597.118 289.875 597.542C292.108 597.922 295.367 598.361 297.83 597.639C297.83 597.639 297.793 597.572 297.83 597.594C298.247 597.862 299.527 598.584 299.892 598.383C302.042 597.178 304.848 597.475 306.715 597.438C308.092 597.438 308.457 597.542 309.186 596.448C309.104 596.448 309.149 596.448 309.186 596.411C310.577 595.414 311.887 595.481 313.442 595.399C313.95 595.403 314.454 595.315 314.931 595.139C317.729 593.948 316.025 593.449 314.477 593.137C313.234 592.891 308.524 594.246 309.394 591.128C311.115 591.693 312.962 591.752 314.715 591.299C315.362 591.135 316.523 590.793 316.947 590.681C319.879 590.852 322.536 590.324 325.379 590.518C324.451 589.82 323.393 589.314 322.268 589.029C321.325 588.821 320.362 588.713 319.396 588.709C319.168 588.773 318.955 588.882 318.77 589.029C318.216 589.454 317.608 589.805 316.962 590.071C316.962 590.071 316.962 590.071 316.962 590.116L316.791 590.049C316.534 589.973 316.297 589.842 316.096 589.666C315.894 589.491 315.733 589.273 315.623 589.029C315.578 588.939 315.543 588.844 315.519 588.746C315.454 588.444 315.325 588.159 315.14 587.911C314.955 587.663 314.719 587.458 314.447 587.31C316.516 587.31 318.577 587.31 320.646 587.31C324.426 587.258 328.221 587.221 332.001 587.206C332.041 587.237 332.087 587.26 332.135 587.273C332.262 587.342 332.407 587.372 332.551 587.36C332.695 587.348 332.832 587.295 332.946 587.206H359.371C359.459 587.26 359.554 587.3 359.654 587.325C359.976 587.438 360.321 587.469 360.658 587.414C360.897 587.355 360.882 587.273 361.068 587.206H373.718C375.19 587.246 376.662 587.129 378.109 586.856C372.81 586.73 367.482 586.804 362.169 586.782C363.948 586.343 365.733 586.038 367.49 585.45H380.683C380.08 585.532 379.497 585.726 378.964 586.023L412.28 587.139C412.269 587.203 412.252 587.265 412.228 587.325C411.35 587.511 410.166 587.787 409.363 587.943C408.678 588.084 408.619 588.047 408.142 588.627C408.142 588.627 408.142 588.627 408.142 588.687C407.97 588.829 407.786 588.956 407.592 589.066H551.866L551.807 589.238C549.716 596.113 546.404 602.282 542.699 608.139L543.041 607.99C544.864 607.224 546.643 606.357 548.369 605.393L548.555 605.289V605.371C548.591 605.336 548.631 605.306 548.674 605.281V605.281H548.763C548.783 605.275 548.804 605.275 548.823 605.281V605.281C548.823 605.281 548.823 605.237 548.823 605.214H548.875C550.051 604.574 551.174 603.934 552.231 603.227C552.975 602.744 553.719 602.26 554.374 601.739C555.029 601.218 555.862 600.683 556.51 600.117L557.477 599.313C557.806 599.054 558.121 598.778 558.422 598.487C559.107 597.885 559.762 597.259 560.387 596.657C560.387 596.657 560.387 596.657 560.387 596.605L560.446 596.553L560.498 596.493C561.012 595.98 561.496 595.466 561.927 594.953C562.18 594.692 562.411 594.439 562.612 594.208C562.813 593.978 563.043 593.695 563.237 593.464C563.669 592.951 564.063 592.467 564.435 591.976C564.807 591.485 565.179 590.957 565.492 590.488C565.804 590.019 566.042 589.677 566.295 589.267C567.763 586.987 568.985 584.557 569.942 582.019C570.053 581.729 570.165 581.446 570.254 581.186C570.425 580.672 570.537 580.248 570.626 579.936V579.876C570.637 579.82 570.637 579.762 570.626 579.705C570.633 579.663 570.633 579.621 570.626 579.579V579.467C570.626 579.422 570.626 579.378 570.686 579.34C570.682 579.321 570.682 579.301 570.686 579.281C570.711 579.245 570.729 579.205 570.738 579.162L307.125 578.961ZM288.439 594.871C282.56 594.618 270.639 595.942 269.181 593.502C270.758 593.598 275.93 593.204 279.599 593.621C282.227 593.913 284.885 593.82 287.487 593.345C291.877 593.085 296 592.966 300.025 590.131C300.07 590.183 300.145 590.131 300.174 590.198C300.204 590.264 300.174 590.458 300.226 590.54C300.209 590.571 300.187 590.599 300.159 590.622V590.622L299.847 590.994C299.051 591.983 299.519 593.427 301.335 592.988C296.997 594.402 292.755 594.164 288.439 594.871ZM416.105 586.298L415.993 586.343L415.814 586.432H415.74L415.695 586.387C415.465 586.246 415.115 586.388 414.84 586.425C413.988 586.503 413.131 586.503 412.28 586.425L411.134 586.187C407.629 585.495 401.14 585.844 396.482 585.77C392.761 585.718 387.515 585.368 383.615 585.42C386.264 585.375 389.07 585.42 391.756 585.42C392.926 585.395 394.09 585.253 395.231 584.996H395.343H396.928C397.181 584.996 397.055 584.996 397.055 584.996C397.559 585.172 398.08 585.294 398.61 585.361C404.436 585.361 410.241 585.361 416.06 585.361C416.586 585.289 417.104 585.169 417.608 585.003C417.519 585.003 417.377 584.892 417.98 585.07C418.255 585.152 418.679 585.338 419.148 585.539C418.106 585.69 417.081 585.944 416.09 586.298H416.105ZM423.129 584.951C423.121 584.925 423.105 584.902 423.085 584.884C423.192 584.722 423.317 584.573 423.457 584.438C424.305 583.575 428.361 583.582 429.306 585.122C427.989 584.728 425.57 584.728 423.129 584.951ZM399.227 599.328H401.259C400.582 599.328 399.897 599.328 399.22 599.328H399.227ZM452.062 654.075H452.292C452.292 654.075 452.292 654.075 452.255 654.075C452.218 654.075 452.099 654.06 452.062 654.075V654.075ZM392.619 602.588H392.753H392.619ZM375.504 588.828L375.095 588.732C373.23 588.363 371.321 588.282 369.432 588.493C369.372 588.493 369.387 588.493 369.38 588.493C369.091 588.531 368.798 588.531 368.509 588.493C368.048 588.404 367.512 587.958 367.132 588.493C361.983 588.612 337.322 588.724 332.158 588.836C331.287 588.516 330.669 588.426 329.992 589.089H380.892C380.244 589.014 379.604 588.932 378.957 588.828C377.807 588.91 376.654 588.91 375.504 588.828V588.828ZM377.915 606.688H377.826H377.915Z" fill="url(#paint5_linear_1770_41586)"/>
<path d="M288.005 670.543C288.008 670.565 288.008 670.588 288.005 670.61C288.213 670.61 288.406 670.61 288.444 670.558L288.005 670.543ZM444.744 713.86C447.646 713.175 450.503 712.439 453.353 711.627C454.663 711.263 455.973 710.883 457.26 710.489C457.459 710.463 457.653 710.405 457.833 710.318C459.143 709.923 460.453 709.492 461.74 709.068C463.027 708.643 464.501 708.152 465.87 707.669C469.524 706.359 473.081 704.99 476.593 703.509C480.105 702.028 483.521 700.458 486.885 698.798H486.974C488.857 697.883 490.732 696.945 492.555 695.926C493.924 695.241 495.271 694.497 496.581 693.753C496.644 693.727 496.702 693.689 496.752 693.641C497.608 693.187 498.456 692.704 499.29 692.153C499.829 691.868 500.353 691.555 500.86 691.215L502.288 690.36C503.539 689.616 504.766 688.79 506.009 687.993C506.24 687.852 506.493 687.711 506.753 687.539C507.297 687.197 507.81 686.855 508.353 686.453C509.097 685.94 509.886 685.396 510.63 684.883C511.977 683.975 513.25 683.03 514.567 682.092C516.219 680.894 517.819 679.644 519.411 678.372C520.81 677.233 522.209 676.095 523.578 674.926C524.404 674.242 525.23 673.52 526.034 672.783C527.627 671.354 529.192 669.901 530.73 668.422C530.861 668.306 530.985 668.182 531.102 668.05C531.734 667.455 532.359 666.822 532.992 666.197C533.624 665.572 534.272 664.917 534.837 664.255C535.73 663.377 536.549 662.462 537.375 661.554C538 660.892 538.603 660.207 539.205 659.522C539.719 658.957 540.232 658.354 540.694 657.759C541.155 657.163 541.661 656.613 542.145 656.017C543.484 654.395 544.764 652.766 546.029 651.084C546.282 650.771 546.535 650.429 546.773 650.087C548.344 647.951 549.854 645.756 551.238 643.531C551.982 642.392 552.727 641.246 553.471 640.078C553.359 640.249 553.27 640.39 553.158 640.539C553.097 640.676 553.012 640.799 552.905 640.904L552.712 641.202L552.332 641.708C551.593 642.76 550.774 643.755 549.884 644.684C549.54 645.081 549.167 645.452 548.768 645.793L547.57 646.909C547.145 647.274 546.721 647.653 546.26 648.018C544.636 649.369 542.942 650.633 541.185 651.806C540.761 652.126 540.329 652.408 539.875 652.699C538.982 653.294 538.082 653.859 537.167 654.432C536.251 655.005 535.306 655.541 534.369 656.084C532.88 656.948 531.318 657.803 529.777 658.629C526.726 660.252 523.675 661.792 520.847 663.131C518.712 664.151 516.77 665.044 514.976 665.81C514.433 666.041 513.919 666.242 513.406 666.435L513.532 666.376C514.656 665.796 515.765 665.223 516.881 664.583C517.856 664.039 518.823 663.466 519.761 662.901C520.446 662.506 521.13 662.045 521.793 661.621V661.561C523.392 660.534 524.925 659.418 526.406 658.28C526.868 657.937 527.381 657.536 527.894 657.141C527.914 657.148 527.935 657.148 527.954 657.141C527.954 657.141 528.006 657.141 528.036 657.082C528.066 657.022 528.036 657.082 528.036 657.029C528.527 656.687 528.981 656.285 529.442 655.943C531.094 654.604 532.664 653.212 534.175 651.783C534.919 651.039 535.663 650.295 536.407 649.618C537.152 648.941 537.829 648.189 538.543 647.445C539.652 646.277 540.738 645.079 541.788 643.851C542.279 643.315 542.733 642.772 543.194 642.228C545.613 639.378 547.867 636.439 549.891 633.529C550.397 632.822 550.889 632.108 551.38 631.394C551.871 630.679 552.436 629.905 552.92 629.109C553.404 628.313 553.887 627.621 554.408 626.877C555.324 625.388 556.209 623.9 557.065 622.486C557.72 621.4 558.315 620.343 558.888 619.286C559.461 618.23 560.027 617.24 560.54 616.243C561.597 614.271 562.542 612.388 563.36 610.647L564.105 608.965C564.246 608.653 564.387 608.37 564.529 608.087C565.012 607.09 565.414 606.145 565.786 605.289C565.898 605.058 565.987 604.865 566.069 604.664C566.151 604.463 566.248 604.232 566.33 604.039C566.925 602.64 567.379 601.472 567.669 600.675C566.677 601.464 565.685 602.208 564.692 602.908C563.7 603.607 562.649 604.257 561.537 604.858C561.169 605.105 560.789 605.333 560.399 605.542C559.766 605.914 559.171 606.249 558.546 606.562C556.721 607.536 554.845 608.412 552.927 609.188C552.072 609.531 551.268 609.873 550.442 610.156C550.406 610.166 550.367 610.166 550.33 610.156C549.728 610.386 549.162 610.58 548.589 610.759C548.413 610.836 548.231 610.901 548.046 610.952C547.48 611.123 546.937 611.324 546.364 611.495V611.443C546.26 611.485 546.153 611.519 546.044 611.547C546.042 611.567 546.042 611.587 546.044 611.607H545.985H545.947H545.858C545.114 611.823 544.37 612.016 543.626 612.21C541.639 612.716 539.697 613.147 537.762 613.46C537.569 613.469 537.377 613.496 537.189 613.542C535.998 613.713 534.852 613.914 533.684 614.055H533.632C527.322 614.822 520.943 614.822 514.634 614.055C519.229 613.812 523.801 613.25 528.319 612.373C532.871 611.494 537.336 610.212 541.661 608.541V608.541C541.996 608.392 542.316 608.273 542.636 608.147C546.357 602.29 549.653 596.121 551.744 589.245L551.804 589.074H407.403C407.023 589.335 406.658 589.655 406.785 589.893C401.33 589.893 395.935 589.707 390.473 589.573C387.288 589.491 384.059 589.446 380.866 589.074H329.967L329.729 589.335H329.595C329.186 589.424 327.898 589.126 327.615 589.789C328.077 590.03 328.584 590.172 329.104 590.205C339.358 590.868 369.057 590.51 379.304 591.009C392.215 591.642 405.14 592.267 418.096 592.408C424.496 592.482 430.992 593.279 437.444 592.356C437.571 592.39 437.7 592.415 437.831 592.43C442.222 593.224 446.707 593.352 451.136 592.81C454.172 592.415 395.772 592.735 398.823 592.877C399.73 592.921 399.284 593.078 399.105 593.703C397.148 593.613 457.528 593.346 455.556 593.465C448.621 593.904 441.618 594.298 434.653 594.559C426.043 594.879 417.411 594.655 408.802 594.559C404.627 594.506 400.482 594.09 396.3 594.358C395.945 594.407 395.587 594.434 395.228 594.439C393.989 594.059 392.688 593.918 391.396 594.023C389.498 594.023 387.616 594.023 385.726 593.978C386.585 594.155 387.379 594.567 388.018 595.169H388.099C388.191 595.332 388.23 595.519 388.211 595.705V595.705C389.536 596.382 390.444 597.297 391.932 596.687C393.152 597.349 394.164 597.17 395.459 596.687C396.203 597.178 396.947 596.769 397.751 596.568H397.825C398.148 596.616 398.474 596.634 398.8 596.62H398.897C399.299 596.787 399.708 596.933 400.125 597.059H400.169C400.169 597.059 400.169 597.059 400.169 597.111C398.845 597.059 397.528 596.992 396.203 596.903C396.083 597.131 395.909 597.327 395.697 597.474C395.484 597.62 395.239 597.713 394.983 597.743C392.594 597.096 389.565 597.23 387.281 597.431C384.996 597.632 383.783 597.952 382.012 596.24C381.196 596.586 380.441 597.064 379.78 597.654C374.957 597.902 370.123 597.808 365.314 597.371C362.218 597.892 339.589 598.272 336.486 598.703C336.985 598.341 337.531 598.045 338.108 597.825C334.127 598.203 330.117 598.14 326.149 597.639C325.197 598.674 324.043 598.994 322.957 599.671C325.737 599.593 328.505 600.071 331.098 601.077C329.662 600.926 328.217 600.879 326.774 600.936C331.663 601.487 356.027 600.936 360.931 600.504C360.847 600.833 360.659 601.125 360.395 601.338C353.05 601.598 326.164 601.859 319.013 602.171C318.756 602.008 318.49 601.859 318.217 601.725C317.459 601.353 316.743 600.901 316.081 600.378C316.049 600.362 316.021 600.339 315.999 600.311C315.955 600.244 315.85 600.154 315.776 600.058C315.686 599.935 315.616 599.8 315.568 599.656C315.507 599.411 315.46 599.162 315.426 598.912C315.511 598.866 315.591 598.811 315.664 598.748C316.208 598.279 316.409 596.382 315.062 597.26L312.829 597.818C312.829 597.982 312.829 598.153 312.785 598.316L312.621 598.406C311.951 598.793 310.195 599.567 309.518 599.894L309.347 599.976H309.302C309.012 600.05 308.61 599.931 308.372 599.976C307.965 600.113 307.596 600.342 307.293 600.646C306.279 601.416 305.031 601.813 303.758 601.769C302.527 601.509 301.314 601.168 300.127 600.75C298.117 599.879 295.855 598.346 294.218 600.891C294.163 600.989 294.099 601.082 294.025 601.167C293.623 601.643 292.172 600.876 291.643 600.504C289.545 599.016 287.923 599.202 285.78 600.437C283.398 601.234 271.388 602.082 269.252 603.786C269.289 603.831 269.304 603.883 269.349 603.912C270.42 603.912 281.538 603.801 282.528 603.823C282.871 603.85 283.197 603.979 283.465 604.195C282.59 604.231 281.721 604.365 280.876 604.597L279.782 604.746C278.837 604.746 276.433 604.746 273.144 604.746C259.675 604.746 252.1 604.924 250.135 605.334C249.391 605.401 248.9 605.483 248.423 605.572C247.947 605.661 247.501 605.75 246.935 605.832C245.856 606.003 244.524 606.167 243.743 606.361C242.731 606.606 240.863 606.837 241.629 607.157C241.153 607.157 240.707 607.216 240.305 607.246C238.37 607.417 237.328 607.648 237.328 607.909C237.328 608.028 237.544 608.139 237.983 608.266C238.154 608.31 238.154 608.37 238.229 608.422C237.425 608.422 236.74 608.489 235.892 608.489H235.535V608.653C235.976 608.667 236.416 608.707 236.852 608.772C237.05 608.819 237.242 608.889 237.425 608.98C237.648 609.166 239.04 609.337 238.608 609.523C238.177 609.709 238.378 609.843 239.241 609.985C238.876 610.074 237.879 610.163 239.196 610.26L240.312 610.372C241.228 610.483 241.682 610.558 241.682 610.632C241.682 610.706 241.22 610.781 240.312 610.87L239.762 610.915C238.08 611.079 238.608 611.25 239.657 611.421C239.754 611.51 239.724 611.599 239.866 611.681C240.004 611.755 240.156 611.801 240.312 611.815C240.588 611.862 240.866 611.892 241.146 611.905L241.6 611.964C241.6 611.964 241.6 612.031 241.466 612.039L240.312 612.12C238.117 612.299 237.693 612.522 238.727 612.865C239.245 613.012 239.776 613.107 240.312 613.147L241.019 613.251C241.116 613.311 241.629 613.363 241.629 613.43C241.629 613.497 241.436 613.504 240.818 613.542L240.312 613.579C238.727 613.72 238.712 613.936 240.149 614.182C240.736 614.33 239.174 614.345 238.98 614.435C239.392 614.492 239.808 614.514 240.223 614.502H240.29C240.811 614.502 241.369 614.502 241.845 614.502C243.036 614.502 242.768 614.628 240.967 614.77H239.315C238.57 614.726 237.822 614.756 237.083 614.859C236.807 614.97 237.901 615 238.519 615.052C239.918 615.149 239.814 615.253 238.698 615.365C235.795 615.625 235.788 615.67 238.534 615.886C238.688 615.897 238.841 615.927 238.988 615.975C238.363 616.213 237.209 616.444 238.191 616.719C237.976 616.823 238.4 616.905 238.802 616.995C239.62 617.181 240.558 617.374 239.546 617.59C239.096 617.579 238.647 617.619 238.206 617.709C237.403 617.887 236.554 618.074 238.348 618.237C240.141 618.401 239.836 618.55 238.251 618.706C237.89 618.665 237.526 618.665 237.165 618.706C237.676 618.83 238.203 618.87 238.727 618.825L240.32 618.944C240.997 619.011 241.309 619.056 241.309 619.115C241.309 619.175 241.012 619.234 240.491 619.324H239.747H239.084C238.213 619.297 237.341 619.322 236.473 619.398C236.406 619.525 238.184 619.487 239.122 619.54C239.241 619.584 239.866 619.644 239.241 619.673C237.633 619.748 238.415 619.822 239.137 619.897L240.297 620.008H240.521C240.521 620.269 242.083 620.343 243.847 620.395C244.335 620.47 244.817 620.577 245.291 620.715C245.625 620.812 245.908 620.894 245.73 620.991C244.896 621.11 245.73 621.191 246.429 621.229C248.825 621.348 248.468 621.549 247.702 621.772C247.439 621.794 247.175 621.794 246.913 621.772C246.664 621.762 246.414 621.779 246.169 621.824C245.692 621.884 245.462 621.958 245.462 622.017C245.462 622.077 245.707 622.159 246.206 622.226C246.704 622.293 246.206 622.605 247.59 622.739L248.476 622.843C248.476 622.843 248.513 622.888 248.476 622.896C245.119 623.119 244.316 623.402 245.745 623.826L246.117 623.878C246.606 623.992 247.104 624.066 247.605 624.101V624.101C247.605 624.205 249.45 624.287 247.925 624.414C245.692 624.6 245.469 624.808 247.099 625.091C247.426 625.158 238.794 625.202 250.648 625.232C262.503 625.262 274.283 625.299 274.283 625.359H275.362C276.159 625.306 276.959 625.336 277.75 625.448C277.84 625.597 276.262 625.604 275.287 625.649H274.588C273.843 625.605 273.095 625.633 272.355 625.731C272.058 625.842 273.099 625.88 273.717 625.924C275.086 626.021 275.205 626.118 274.044 626.237C273.776 626.237 273.449 626.237 273.241 626.296C271.246 626.534 271.239 626.549 273.568 626.743C274.149 626.795 274.037 626.847 274.044 626.914C273.025 627.182 272.764 627.457 273.65 627.74C274.335 627.896 275.257 628.053 275.257 628.216C275.257 628.38 275.079 628.373 274.625 628.462C274.086 628.443 273.547 628.503 273.025 628.64V628.678C271.953 628.901 272.809 629.05 274.439 629.176C275.042 629.295 274.937 629.407 274.044 629.511C273.513 629.474 272.979 629.494 272.452 629.571C272.311 629.675 273.196 629.712 273.977 629.727C274.58 629.727 275.161 629.801 275.652 629.853C276.022 629.88 276.389 629.945 276.746 630.047C275.917 630.186 275.078 630.249 274.238 630.233C273.211 630.233 272.072 630.233 271.068 630.307C272.325 630.389 273.345 630.426 274.424 630.441C274.565 630.465 274.704 630.498 274.841 630.538C274.841 630.538 274.803 630.538 274.714 630.538C272.534 630.657 274.029 630.724 274.952 630.806C277.049 631.02 279.155 631.127 281.263 631.126C284.403 631.208 287.774 631.267 288.957 631.297C289.816 631.359 290.671 631.474 291.517 631.639C292.389 631.835 293.28 631.939 294.173 631.952H294.352H294.546C295.587 631.989 296.689 632.011 297.649 632.063C300.409 632.212 312.911 632.369 316.066 632.391C316.81 632.391 317.666 632.391 317.666 632.547C317.063 632.547 316.446 632.547 315.85 632.592C315.255 632.636 313.923 632.592 314.265 632.726C314.958 632.792 315.656 632.792 316.349 632.726C317.54 632.674 318.738 632.651 319.958 632.636L316.647 632.815C302.887 633.559 268.195 634.199 254.399 633.842C252.505 635.15 250.194 635.712 247.91 635.42C246.719 635.308 245.514 635.07 244.249 634.832C242.567 635.412 240.841 635.353 239.166 636.015C240.856 636.231 242.508 636.208 244.1 637.034C244.152 637.95 244.152 638.299 243.49 638.701C241.302 638.59 239.122 638.418 236.934 638.329C234.97 638.231 233.002 638.249 231.04 638.381C233.012 638.679 234.969 639.058 236.934 639.408C238.422 639.676 239.91 639.922 241.399 640.108C241.138 640.509 240.655 641.38 241.309 641.492C242.113 639.884 243.654 640.271 244.889 640.048C245.395 640.071 245.886 640.233 246.306 640.517C246.726 640.8 247.06 641.194 247.27 641.655C244.762 642.526 250.172 643.01 247.642 643.717C248.543 645.146 241.786 644.93 243.058 644.759C244.695 644.967 246.313 645.123 247.91 645.227C251.013 645.421 262.049 645.413 265.286 645.272C270.182 645.056 262.004 644.766 266.923 644.989C267.935 644.989 268.009 645.577 269.155 645.503C274.275 645.19 276.597 644.892 281.806 645.83C281.275 645.835 280.746 645.878 280.221 645.957C280.969 645.943 281.717 646.003 282.453 646.135H282.557H282.736L282.996 646.18C285.549 646.597 288.726 647.162 291.48 646.314C289.371 646.316 287.265 646.199 285.169 645.964C287.484 646.024 289.805 646.158 292.127 646.299C293.109 645.376 294.136 645.443 295.267 645.48C294.977 645.882 295.104 646.15 295.267 646.589C294.037 646.652 292.816 646.834 291.621 647.132L292.231 647.304C290.527 647.304 288.808 647.251 287.104 647.229C286.714 647.173 286.318 647.173 285.928 647.229C284.998 647.229 284.053 647.229 283.13 647.229C278.546 647.17 264.207 646.611 259.623 646.864C252.256 647.281 271.157 647.17 263.82 647.177C261.614 647.088 259.407 647.296 257.256 647.795C256.803 647.832 256.349 647.847 255.902 647.854C252.181 647.936 248.535 647.445 244.919 648.293C243.69 648.581 242.504 649.029 241.391 649.625H241.354H241.391L241.22 649.499C240.61 649.089 239.204 649.499 238.564 650.347L238.303 650.414C237.559 650.585 235.862 650.965 234.992 651.158C235.178 651.158 239.248 651.218 244.941 651.248L255.924 651.307C268.709 651.389 269.267 651.523 269.267 651.82C269.269 651.833 269.269 651.845 269.267 651.858C269.272 651.887 269.272 651.917 269.267 651.947C269.267 651.843 269.304 651.53 269.155 652.334C269.111 652.557 268.114 652.751 266.439 652.914C287.216 652.914 292.142 652.914 307.724 652.862C308.349 652.862 309.004 652.803 309.622 652.81C309.622 652.81 309.548 652.81 309.622 652.81C309.696 652.81 309.778 652.81 309.853 652.766C310.244 652.724 310.63 652.644 311.006 652.527C311.166 652.482 311.331 652.452 311.497 652.438C311.899 652.438 312.651 652.438 312.926 652.438H313.045C313.554 652.586 314.074 652.69 314.6 652.751C320.412 652.751 326.209 652.751 332.013 652.699C332.293 652.683 332.569 652.638 332.839 652.565C335.511 652.699 357.686 652.81 360.373 652.87C361.861 652.87 363.349 652.87 364.837 652.922C364.629 653.078 364.421 653.249 364.227 653.42C364.17 653.478 364.12 653.543 364.078 653.614C360.685 653.435 337.773 653.145 334.365 653.361C326.975 653.837 319.564 653.696 312.189 653.74C309.975 653.655 307.759 653.872 305.604 654.388C304.165 654.42 302.725 654.356 301.295 654.194C300.655 654.142 300.022 654.075 299.39 654.031C296.064 653.763 292.789 653.807 289.657 656.263C289.657 656.263 289.657 656.263 289.604 656.263C289.448 656.151 289.865 656.39 289.404 656.107C288.942 655.824 277.743 656.01 277.244 657L276.954 657.082C276.247 657.275 274.498 657.655 273.635 657.826C273.047 657.937 272.809 657.945 272.452 658.503C272.452 658.562 272.452 658.503 272.452 658.503C272.448 658.533 272.448 658.563 272.452 658.592C272.452 658.473 272.452 658.295 272.311 658.994C271.879 660.795 271.514 660.482 274.454 660.095C277.534 659.649 291.569 659.932 295.096 659.887C298.623 659.842 302.538 659.887 306.184 659.887C306.184 659.999 306.184 660.095 306.184 660.207L296.949 660.78C297.366 661.028 297.835 661.173 298.318 661.204C305.938 661.085 313.514 661.093 321.126 661.003C323.47 661.003 325.815 660.944 328.166 660.929V660.996C328.166 660.996 328.211 660.996 328.166 661.063C328.121 661.13 326.745 662.082 327.035 662.283C326.961 662.343 326.886 662.38 326.819 662.432C333.33 662.64 359.361 662.856 365.879 663.057L362.635 663.265C363.052 663.51 363.521 663.653 364.004 663.682C369.213 663.615 374.422 663.585 379.631 663.578C379.572 664.612 379.966 664.925 380.651 665.111H380.42L379.408 665.185C375.523 665.458 371.641 665.766 367.762 666.108C367.663 666.02 367.546 665.954 367.42 665.915C367.431 665.986 367.431 666.059 367.42 666.13C367.226 666.13 367.048 666.182 366.854 666.182C363.878 666.116 360.998 666.034 358.021 665.959C354.181 665.87 330.785 665.81 326.961 665.215C325.815 665.215 324.594 665.282 323.493 665.215H323.337L323.091 665.163C321.222 664.86 319.324 664.775 317.435 664.91C317.346 664.91 317.398 664.91 317.376 664.91C317.087 664.947 316.794 664.947 316.505 664.91C316.059 664.821 315.523 664.382 315.136 664.91L303.364 665.208L299.725 665.297L299.472 665.208C299.24 665.095 298.986 665.036 298.728 665.036C298.47 665.036 298.215 665.095 297.984 665.208C297.849 665.29 297.724 665.387 297.611 665.498C297.508 665.591 297.413 665.693 297.329 665.803H297.195C296.793 665.87 295.491 665.587 295.223 666.272C295.68 666.524 296.189 666.669 296.711 666.696C305.231 667.217 313.73 667.061 322.235 667.269C323.939 667.269 325.643 667.358 327.347 667.44C328.144 667.44 328.94 667.492 329.721 667.544C329.647 667.544 328.233 667.619 329.215 667.708C330.473 667.827 330.808 667.879 332.512 667.946C334.216 668.013 357.18 668.088 359.219 668.14C359.573 668.277 359.885 668.503 360.127 668.794C360.055 668.546 359.913 668.324 359.718 668.154C362.049 668.214 364.379 668.298 366.705 668.407C366.4 668.407 366.095 668.407 365.842 668.653C366.286 668.613 366.722 668.51 367.137 668.348L368.335 668.393C368.402 668.495 368.442 668.613 368.452 668.735C368.463 668.857 368.443 668.98 368.394 669.092C370.723 668.876 373.067 668.903 375.389 669.174C377.22 669.39 377.763 669.65 379.341 669.918C375.516 669.918 371.773 669.918 367.978 669.918C368.112 670.149 368.335 670.335 368.201 670.662C367.375 670.662 366.556 670.662 365.73 670.662C365.641 670.662 365.574 670.573 365.492 670.536C366.043 670.417 366.765 670.662 367.129 669.948C364.765 669.972 362.402 670.118 360.053 670.387C360.195 670.404 360.337 670.429 360.477 670.461C359.963 670.461 359.465 670.461 358.951 670.461C355 670.461 331.611 670.424 327.697 670.216C320.948 669.859 314.191 669.3 307.39 670C306.36 670.104 305.321 670.031 304.316 669.784C302.984 669.338 302.508 669.524 301.34 670.112C301.525 670.374 301.729 670.623 301.95 670.856L302.024 670.93L300.417 670.841C300.617 670.985 300.763 671.192 300.834 671.429C300.565 671.131 300.216 670.916 299.829 670.811C297.597 670.744 293.794 670.67 291.934 670.603C290.073 670.536 289.701 670.499 288.317 670.394C287.632 670.327 288.005 670.275 288.384 670.246L285.988 670.126C280.623 669.888 285.348 669.859 279.983 669.821L280.37 669.591C278.316 669.315 276.909 668.78 277.177 667.76C278.762 668.214 276.82 668.326 280.623 668.073C281.103 668.05 281.583 668.003 282.059 667.931H282.275C282.974 667.76 283.763 667.931 284.574 667.232C284.622 667.199 284.667 667.162 284.708 667.12C286.799 665.974 290.661 665.401 292.737 667.187C290.929 665.587 289.203 665.371 286.859 665.349C286.561 665.349 285.028 666.912 284.448 666.689C284.403 666.689 284.41 666.688 284.448 666.748C284.402 666.707 284.352 666.672 284.299 666.644C284.01 666.527 283.747 666.352 283.527 666.131C283.307 665.91 283.134 665.646 283.019 665.356C282.416 663.518 280.682 663.742 279.387 664.158H279.343H279.186C278.593 664.219 277.996 664.234 277.4 664.203C277.4 664.203 277.4 664.203 277.4 664.203L277.333 664.158C277.193 664.082 277.036 664.042 276.876 664.042C276.716 664.042 276.559 664.082 276.418 664.158C276.515 664.158 276.478 664.255 275.674 664.821C273.91 666.041 279.164 666.48 276.902 664.977L276.753 665.066L276.426 665.103C275.495 665.206 274.57 665.363 273.657 665.572C273.434 665.624 273.211 665.684 273.01 665.751H246.623C246.304 665.749 245.986 665.767 245.67 665.803C244.375 665.952 243.214 666.949 242.083 667.567L248.781 667.656C247.806 667.678 246.838 667.839 245.908 668.132C244.385 668.596 242.796 668.802 241.205 668.742C240.014 668.677 238.823 668.883 237.723 669.345L237.819 669.427C238.455 669.744 239.156 669.904 239.866 669.896C240.573 669.851 241.443 669.673 241.51 670.402C242.255 670.32 242.999 670.208 243.825 670.067C247.59 669.821 272.921 669.665 276.396 667.834H276.716H276.961C276.797 667.785 276.627 667.762 276.455 667.768C277.057 667.45 277.636 667.092 278.189 666.696C278.234 666.755 278.301 666.696 278.338 666.77C278.375 666.845 278.338 667.016 278.398 667.098L278.338 667.15H278.301C278.254 667.197 278.204 667.242 278.152 667.284C276.232 668.951 277.847 669.464 279.462 669.591C278.428 670.059 277.337 670.39 276.217 670.573C274.245 670.484 250.522 670.357 248.55 670.179C246.191 670.461 243.832 670.632 241.473 670.804C241.479 670.853 241.479 670.903 241.473 670.952C242.217 671.645 242.426 671.92 243.14 671.883C243.375 671.874 243.609 671.844 243.84 671.793C244.167 671.741 244.509 671.667 244.844 671.6C246.861 671.198 270.807 670.781 272.757 671.868C272.754 671.887 272.754 671.908 272.757 671.927C272.798 672.205 272.883 672.473 273.01 672.724C273.337 673.371 273.65 673.542 271.306 673.267C269.519 673.251 267.741 673.53 266.045 674.093L265.695 674.212C265.851 674.212 265.933 674.264 265.933 674.294C265.339 674.451 264.724 674.514 264.11 674.48C262.934 674.532 261.26 674.569 259.273 674.599C256.2 674.643 252.382 674.666 248.498 674.666C248.052 674.558 247.591 674.533 247.136 674.591C247.084 674.61 247.034 674.635 246.987 674.666C244.755 674.666 242.604 674.666 240.55 674.666C235.565 674.666 231.323 674.584 229.567 674.524H229.105C229.21 674.569 229.381 674.643 229.567 674.74C230.103 674.986 230.772 675.388 230.624 675.938C230.958 675.938 235.007 675.983 240.55 676.013L254.726 676.065H262.272C261.866 676.173 261.486 676.363 261.156 676.623C260.895 676.824 260.933 677.01 261.096 677.159C261.49 677.419 261.949 677.561 262.421 677.568C262.495 677.568 262.882 677.62 262.994 677.568C261.111 678.453 259.236 677.851 257.301 677.732C255.924 679.272 253.305 678.044 251.765 678.081C247.992 678.186 264.787 678.826 261.074 679.443C263.049 679.683 265.041 679.745 267.027 679.629C267.496 679.629 267.965 679.629 268.434 679.629C268.37 679.765 268.297 679.897 268.218 680.024C268.129 680.166 268.021 680.296 267.898 680.411C267.627 680.651 267.314 680.84 266.975 680.969C266.468 680.807 265.925 680.803 265.416 680.957C264.907 681.111 264.457 681.416 264.125 681.832C265.702 681.762 267.283 681.849 268.843 682.092V682.092C269.245 682.152 269.646 682.219 270.048 682.301C266.982 683.201 264.095 683.625 261.037 682.993H260.88C257.917 683.603 254.902 683.926 251.876 683.96C251.312 684.469 250.637 684.839 249.904 685.039C248.416 685.426 246.928 685.136 245.387 685.039C244.258 686.024 242.938 686.766 241.51 687.219C242.418 687.324 243.326 687.272 244.226 687.465C242.844 688.922 240.962 689.802 238.958 689.928C239.271 689.616 239.628 689.392 239.955 689.095C238.021 689.283 236.131 689.786 234.359 690.583C234.187 690.547 234.013 690.519 233.838 690.501C232.945 690.427 232.06 690.598 233.838 690.881C234.106 690.925 234.434 690.963 234.828 691.015C237.239 691.297 239.464 691.402 241.637 691.573C244.449 691.723 247.229 692.243 249.904 693.121L250.455 693.321H249.904H248.736L248.87 693.396L247.464 693.292H247.538C244.621 693.076 241.689 693.151 238.787 693.515C239.047 693.552 239.308 693.604 239.568 693.619C239.62 693.619 239.605 693.53 239.65 693.537C239.866 693.537 240.074 693.679 240.297 693.694C242.083 693.798 243.847 693.694 245.566 694.304L245.826 694.408C244.852 694.408 243.877 694.408 242.894 694.333C244.546 694.467 246.198 694.587 247.85 694.691L249.339 694.787L249.138 694.743H251.207C251.117 694.817 251.482 694.832 251.065 694.899C254.414 694.854 257.666 694.899 260.873 694.944H260.992L261.148 695.003C262.957 695.04 263.857 695.048 264.125 695.003C270.435 695.189 265.97 695.532 260.895 695.896C255.098 696.32 248.513 696.767 256.371 697.072H256.765L260.88 697.213C264.497 697.34 268.419 697.451 272.415 697.578C275.823 697.682 258.916 697.794 262.317 697.913C259.117 697.913 276.299 697.913 273.099 697.913L260.88 697.972H253.32H260.307H272.497C276.656 697.972 260.449 697.972 264.609 697.972C266.298 698.039 267.957 698.099 269.572 698.173L268.887 698.225C265.025 698.612 282.669 698.932 280.34 699.215C275.481 699.795 272.377 700.205 264.333 700.703C264.37 700.703 264.333 700.651 264.028 700.77C263.478 701.001 265.665 701.128 266.648 701.09C259.206 701.834 264.884 702.527 275.287 702.579H276.835C275.926 702.689 275.01 702.714 274.096 702.653H273.992H273.858L272.965 702.765C270.8 703.025 262.547 703.405 255.753 703.68L247.151 704.03C246.102 704.156 253.223 704.342 252.457 704.439C251.028 704.625 249.681 704.766 248.349 704.885C247.017 705.004 245.506 705.153 244.033 705.324C243.975 705.399 243.901 705.46 243.817 705.503C243.683 705.575 243.541 705.63 243.393 705.667C242.508 705.789 241.615 705.856 240.722 705.868C240.327 705.92 241.607 707.029 237.827 707.944C236.21 708.071 234.609 708.361 233.049 708.807H233.087L232.633 708.934C231.539 709.254 231.777 709.611 233.087 709.544C234.701 709.99 236.309 710.474 237.976 710.846C238.533 710.948 239.098 711 239.665 711.002C241.272 711.077 239.308 711.456 240.61 711.33H240.655C241.146 711.456 241.622 711.575 242.143 711.665C242.416 711.718 242.692 711.756 242.969 711.776C243.4 711.821 243.847 711.843 244.293 711.866C244.599 711.866 244.919 711.866 245.231 711.91L247.724 711.992C257.651 712.848 249.123 712.424 259.072 712.736C260.107 712.736 261.156 712.736 262.198 712.788H263.195H264.683C263.582 712.788 239.047 712.892 239.695 712.907H240.684C241.86 712.907 243.036 712.967 244.212 712.989C245.953 713.034 247.702 713.064 249.421 713.123L252.1 713.19C265.42 713.391 260.226 713.808 273.546 714.061C275.652 714.061 277.445 714.165 279.558 714.187L281.583 714.224H282.572C283.049 714.224 283.532 714.187 284.008 714.157C285.735 714.068 287.454 714.157 289.18 714.157C288.726 714.321 288.86 714.463 289.225 714.604C289.225 714.455 289.284 714.306 289.307 714.157H289.962C290.356 714.12 290.706 714.053 291.122 713.986C293.151 714.264 295.202 714.349 297.247 714.239C298.716 714.222 300.186 714.302 301.645 714.477C304.837 714.701 308.037 714.79 311.237 714.835C311.568 714.897 311.904 714.934 312.241 714.946C312.431 714.93 312.62 714.903 312.807 714.864C313.618 714.864 314.355 714.864 315.136 714.864C315.099 715.071 315.099 715.283 315.136 715.489H315.039C315.114 715.489 315.143 715.489 315.039 715.489H314.92H314.816H314.749L314.005 715.571C309.063 716.114 304.094 716.377 299.122 716.36C298.76 716.333 298.409 716.221 298.097 716.033C297.786 715.846 297.523 715.588 297.329 715.281V715.281C297.329 715.281 297.329 715.214 297.329 715.103C297.329 714.991 294.449 714.135 293.72 714.857C293.72 714.857 293.66 714.797 293.638 714.783C293.228 714.641 292.834 714.455 292.432 714.291C291.636 714.379 290.857 714.579 290.118 714.887V714.887H290.021C289.79 714.924 289.106 715.073 288.89 715.437H288.756L288.183 715.393C286.598 715.274 281.843 714.812 279.611 715.668C278.203 716.14 276.718 716.342 275.235 716.263C274.051 716.201 272.867 716.399 271.767 716.844L271.864 716.933C272.493 717.253 273.19 717.416 273.896 717.409C274.766 717.357 275.86 717.112 275.466 718.548C275.741 718.823 276.88 719.024 278.353 719.173H278.651C281.947 719.486 276.612 719.53 277.497 719.367C277.825 719.314 278.167 719.24 278.517 719.173H284.038C284.245 719.258 284.446 719.355 284.641 719.463C284.641 719.463 284.641 719.627 284.708 719.791C284.931 720.825 286.062 721.227 283.22 720.847C281.858 720.669 279.164 721.249 277.616 721.77C281.575 722.47 285.608 722.269 289.642 722.016L289.738 722.112C290.276 722.702 290.729 723.363 291.085 724.077C291.137 724.077 290.966 724.077 290.944 724.077L291.524 724.136C292.774 724.256 295.379 723.884 297.128 724.017C298.43 724.114 300.476 725.662 301.593 723.936C301.593 724.025 301.831 723.891 301.689 723.787C301.661 723.837 301.629 723.884 301.593 723.928C301.593 723.876 301.689 723.727 302.017 723.422C302.887 722.633 306.102 722.596 307.635 722.224C308.093 722.191 308.553 722.191 309.012 722.224C310.85 723.34 311.765 722.551 313.558 721.874H313.737H313.685C313.761 721.865 313.836 721.847 313.908 721.822C314.652 721.621 317.428 720.825 318.165 721.74C319.43 723.325 320.397 722.834 321.885 722.804C323.374 722.775 325.137 722.804 326.514 722.678C328.687 722.551 324.49 721.264 328.002 721.859C331.113 722.38 352.946 722.559 355.982 722.023C355.93 722.023 355.885 722.023 355.908 721.956C356.317 722.239 357.612 722.946 357.969 722.745C360.127 721.539 362.932 721.822 364.808 721.785C366.192 721.785 366.542 721.897 367.286 720.788C367.196 720.788 367.249 720.788 367.286 720.751C368.677 719.753 369.994 719.82 371.542 719.739C372.051 719.744 372.556 719.653 373.031 719.471C373.301 719.36 373.564 719.233 373.819 719.091C373.99 718.994 339.633 718.898 339.737 718.816H383.806C383.695 718.643 383.565 718.483 383.419 718.34C384.803 718.34 386.187 718.377 387.579 718.34C388.868 718.24 390.165 718.381 391.403 718.756C391.762 718.747 392.119 718.72 392.475 718.674C395.484 718.552 398.497 718.589 401.501 718.786H357.642C357.639 718.838 357.648 718.89 357.669 718.938C357.689 718.986 357.721 719.028 357.761 719.061V719.061H394.343C397.535 719.061 400.698 719.002 403.838 718.86C406.175 718.749 408.541 718.63 410.848 718.459C412.024 718.377 413.192 718.295 414.36 718.176C415.529 718.057 416.667 717.982 417.806 717.834C419.354 717.662 420.857 717.491 422.405 717.298M293.831 602.528C293.154 602.737 292.135 603.027 291.361 603.22C291.078 603.287 290.743 603.384 290.46 603.481C290.493 603.234 290.513 602.986 290.52 602.737C290.765 601.576 291.524 602.737 292.142 602.566C293.061 602.626 293.972 602.363 294.717 601.821C294.605 602.432 294.337 602.379 293.831 602.528ZM311.505 601.628C311.671 601.935 311.749 602.283 311.728 602.633L310.917 602.67L309.838 602.729C310.419 602.26 311.025 601.823 311.653 601.42C311.951 601.234 312.107 601.144 311.981 600.735V600.698C312.412 601.159 311.854 601.427 311.505 601.628ZM332.616 659.887L332.385 659.947C331.641 660.118 329.959 660.49 329.022 660.691C328.712 660.73 328.412 660.826 328.136 660.973C327.333 660.94 326.543 660.748 325.815 660.408C323.997 660.805 322.139 660.99 320.278 660.959C319.978 660.978 319.677 660.978 319.378 660.959C316.921 660.505 314.406 660.465 311.936 660.84C311.006 660.973 308.87 661.189 308.915 659.947H308.826H309.19C310.083 659.887 311.467 659.947 312.688 659.947C319.311 659.947 326.082 659.909 332.78 659.894C332.725 659.897 332.67 659.894 332.616 659.887V659.887ZM295.342 721.651C295.032 721.537 294.717 721.44 294.397 721.361C293.464 721.195 292.522 721.081 291.576 721.019C291.03 721.005 290.484 721.065 289.954 721.197C290.207 719.247 292.127 719.776 293.548 719.783C294.814 719.869 296.086 719.827 297.344 719.657H298.088C297.113 720.259 296.019 720.46 295.342 721.651ZM401.248 599.299H399.217C399.887 599.299 400.571 599.291 401.248 599.299ZM457.803 601.62C461.249 600.876 403.139 600.876 406.398 600.474C408.787 600.214 409.836 601.665 412.001 601.65C412.75 601.63 413.495 601.558 414.234 601.434C415.863 601.397 417.493 601.397 419.13 601.397C421.347 601.767 423.61 601.767 425.828 601.397H426.14C426.475 601.397 426.81 601.397 427.122 601.397C429.519 601.449 431.952 601.397 434.363 601.397C434.667 601.431 434.975 601.395 435.263 601.293C434.966 601.239 434.665 601.216 434.363 601.226C434.482 601.181 434.78 601.129 434.78 601.092C434.78 601.055 434.571 601.025 433.857 601.018H427.569L428.127 600.891L428.953 600.713C429.34 600.713 429.697 600.713 430.121 600.713L429.266 600.668L430.01 600.534C431.319 600.534 432.622 600.534 433.924 600.534H434.08C434.489 600.638 434.906 600.832 435.263 600.899C437.549 601.265 439.878 601.283 442.169 600.951H445.235C447.4 600.951 448.606 600.861 448.732 600.601H452.349C453.196 601.047 454.12 601.33 455.072 601.434C456.204 601.494 456.047 601.434 455.623 600.601C457.61 600.601 459.589 600.601 461.576 600.683C460.408 600.787 459.106 600.735 457.908 600.765C457.439 600.765 456.94 600.765 456.992 600.869C457.291 600.932 457.596 600.955 457.9 600.936C459.463 600.936 461.048 600.995 462.529 600.936C464.769 601.401 467.059 601.589 469.345 601.494C468.306 601.619 467.257 601.651 466.212 601.591C464.143 601.453 462.065 601.513 460.006 601.769C459.619 601.702 459.262 601.635 458.853 601.598C458.637 601.598 458.414 601.598 458.198 601.598L458.138 601.152C457.774 601.286 457.61 601.427 458.064 601.598C457.789 601.598 457.513 601.598 457.238 601.598C456.963 601.598 456.747 601.598 456.494 601.598H456.419H455.489H455.266C454.745 601.598 453.592 601.598 452.87 601.524C452.46 601.487 451.888 601.464 451.434 601.457H450.451C449.774 601.457 449.09 601.457 448.412 601.457C446.292 601.457 444.148 601.591 442.028 601.62C437.183 601.687 432.354 601.799 427.494 601.918C422.925 601.68 418.148 601.628 413.415 601.836C410.692 601.955 408.065 601.978 405.319 601.97L398.22 601.918C398.056 601.918 459.984 601.918 459.85 601.866C459.094 601.776 458.333 601.739 457.573 601.754H457.186L457.803 601.62ZM427.599 597.185H429.69C428.745 597.438 427.8 597.684 426.847 597.93C427.152 597.632 427.398 597.379 427.651 597.185H427.599ZM425.136 600.847C427.725 600.847 430.345 600.787 432.927 600.847L431.498 601.293C430.837 601.458 430.151 601.501 429.474 601.42C429.035 601.42 428.551 601.323 428.09 601.33C427.174 601.347 426.259 601.27 425.359 601.1C425.106 601.047 424.868 601.003 424.615 600.966C424.816 600.899 425.002 600.884 425.188 600.847H425.136ZM420.373 601.673C420.421 601.385 420.565 601.123 420.782 600.928C421.474 600.928 422.159 600.928 422.844 600.928C422.948 600.928 423.059 601.003 423.156 601.047C423.01 601.096 422.868 601.155 422.732 601.226L422.397 601.397H421.861C421.415 601.397 420.901 601.449 420.953 601.509C421.303 601.58 421.661 601.603 422.018 601.576C421.85 601.657 421.675 601.724 421.497 601.777H419.86C419.363 601.679 418.88 601.519 418.423 601.301C419.123 601.39 419.785 601.516 420.425 601.673H420.373ZM415.417 599.611C414.789 599.853 414.142 600.042 413.482 600.177C410.081 600.177 406.673 600.422 403.273 600.601H403.124C407.217 600.013 411.309 599.775 415.417 599.611ZM392.616 602.588H392.743H392.616ZM377.882 606.673H377.83H377.92C377.92 606.673 377.89 606.681 377.875 606.688L377.882 606.673ZM367.092 601.263C366.311 601.263 365.492 601.263 364.756 601.263L363.148 601.315C364.439 601.199 365.722 601.003 366.988 600.728C372.622 601.103 378.276 601.103 383.91 600.728C387.869 600.519 391.746 600.467 395.697 600.616H395.645L391.403 600.69C383.218 600.869 375.144 601.1 367.085 601.278L367.092 601.263ZM328.508 719.634H328.203C327.764 719.672 327.4 719.716 327.117 719.753C321.201 719.523 315.3 720.073 309.384 720.438C308.943 720.532 308.51 720.658 308.089 720.818C306.363 720.632 304.435 720.818 302.984 719.634H302.947C302.575 719.321 302.261 718.946 302.017 718.526C302.017 718.526 302.017 718.526 302.017 718.526C303.613 718.615 305.213 718.615 306.809 718.526C310.622 718.206 314.456 718.206 318.269 718.526C320.907 718.806 323.572 718.7 326.179 718.213C329.959 717.96 353.162 717.625 356.845 716.1H357.753C356.778 717.729 358.654 717.722 359.495 717.886C355.58 719.173 335.116 719.136 328.523 719.649L328.508 719.634Z" fill="url(#paint6_linear_1770_41586)"/>
<path style="mix-blend-mode:multiply" opacity="0.3" d="M513.281 666.489C513.237 666.489 513.147 666.556 513.103 666.593L513.437 666.459C515.625 665.573 518.059 664.435 520.767 663.17C532.197 657.79 546.812 649.731 552.297 641.731C552.691 641.21 553.041 640.652 553.391 640.094L552.646 641.27C541.484 659.427 525.403 675.389 505.944 688.062C499.848 692.062 493.499 695.663 486.939 698.844H486.857C459.971 712.112 428.307 719.762 394.374 719.762H357.777C357.742 719.735 357.714 719.699 357.695 719.658L374.446 719.263C374.285 719.473 374.079 719.643 373.843 719.762H328.518C335.118 719.249 355.575 719.278 359.481 718.043C358.648 717.879 356.765 717.894 357.74 716.257H356.832C353.149 717.79 329.954 718.118 326.166 718.378C323.558 718.867 320.893 718.97 318.256 718.683C314.443 718.363 310.609 718.363 306.796 718.683C305.2 718.78 303.6 718.78 302.004 718.683C302.004 718.683 302.004 718.683 302.004 718.683C302.25 719.106 302.567 719.484 302.941 719.799H278.325C276.837 719.65 275.72 719.442 275.438 719.167C275.84 717.731 274.738 717.976 273.868 718.028C273.162 718.034 272.465 717.871 271.836 717.552L271.739 717.47C272.84 717.018 274.027 716.818 275.214 716.882C276.697 716.96 278.182 716.758 279.59 716.287C281.822 715.439 286.57 715.893 288.155 716.012L288.728 716.056C288.775 716.063 288.823 716.063 288.869 716.056C289.078 715.692 289.762 715.55 290.001 715.506H290.097C290.837 715.2 291.616 714.999 292.412 714.91C292.813 715.074 293.215 715.26 293.625 715.409C293.625 715.409 293.684 715.491 293.699 715.476C294.443 714.732 297.308 715.721 297.308 715.721C297.303 715.783 297.303 715.846 297.308 715.907V715.907C297.496 716.22 297.758 716.482 298.071 716.67C298.383 716.858 298.737 716.967 299.101 716.986C304.074 717.011 309.043 716.748 313.984 716.198L314.729 716.123C314.684 716.123 314.676 716.123 314.729 716.123H314.81H314.892H315.011C315.138 716.123 315.101 716.123 315.011 716.123C315.043 716.117 315.076 716.117 315.108 716.123C315.071 715.917 315.071 715.705 315.108 715.498C314.319 715.498 313.583 715.439 312.779 715.498C312.59 715.536 312.398 715.564 312.206 715.58C311.871 715.572 311.537 715.535 311.209 715.468C308.009 715.424 304.809 715.342 301.617 715.111C300.155 714.939 298.683 714.859 297.211 714.873C295.167 714.985 293.116 714.903 291.087 714.627C290.7 714.694 290.343 714.754 289.934 714.791C289.718 714.791 289.495 714.791 289.279 714.828C289.279 714.977 289.227 715.126 289.197 715.275C288.825 715.126 288.698 714.992 289.145 714.828C287.418 714.828 285.699 714.754 283.98 714.828C283.497 714.828 283.021 714.88 282.537 714.888H281.555H279.523C277.41 714.888 275.616 714.799 273.51 714.754C260.198 714.501 265.384 714.084 252.072 713.883L249.385 713.816C247.644 713.764 245.903 713.727 244.176 713.69C242.993 713.69 241.825 713.638 240.649 713.601C240.314 713.601 239.987 713.601 239.659 713.601C239.012 713.601 263.546 713.511 264.64 713.482H263.152C262.817 713.482 262.482 713.482 262.155 713.482C261.105 713.482 260.064 713.482 259.022 713.429C249.08 713.139 257.608 713.571 247.681 712.685L245.188 712.596H244.251C243.804 712.596 243.35 712.544 242.919 712.507C242.636 712.477 242.36 712.44 242.093 712.395C241.587 712.306 241.103 712.187 240.604 712.06H240.56C239.265 712.187 241.229 711.815 239.615 711.74C239.05 711.732 238.488 711.678 237.933 711.577C236.266 711.204 234.659 710.728 233.044 710.282C231.727 710.341 231.496 709.984 232.59 709.672C232.736 709.621 232.885 709.579 233.036 709.545H232.999C234.56 709.092 236.163 708.8 237.784 708.674C241.557 707.766 240.284 706.65 240.671 706.598C241.565 706.585 242.457 706.521 243.343 706.405C243.492 706.369 243.635 706.311 243.767 706.234H379.38C383.227 706.234 387.082 706.129 390.892 705.921C391.08 705.903 391.269 705.903 391.457 705.921C408.015 705.088 431.738 702.364 446.71 698.033H446.933C447.092 697.977 447.253 697.93 447.417 697.892C447.767 697.787 448.116 697.721 448.422 697.616C464.577 692.869 471.639 686.268 485.167 678.172C507.149 665.008 525.195 647.833 537.496 628.002C540.719 622.793 543.533 617.342 545.912 611.697V611.653H545.957C546.076 611.626 546.193 611.588 546.306 611.541C548.515 610.896 550.687 610.129 552.81 609.242C558.11 607.124 563.066 604.23 567.515 600.654C567.504 600.687 567.492 600.72 567.477 600.751C564.59 608.319 550.012 642.981 521.631 661.607V661.644C518.95 663.429 516.161 665.047 513.281 666.489V666.489Z" fill="url(#paint7_linear_1770_41586)"/>
<path d="M150.227 707.332L229.366 714.714L229.098 699.273L192.717 698.387L229.106 697.717L229.113 694.592L170.214 693.647L210.681 693.275L192.725 692.925L229.113 692.255L229.136 684.918L174.545 683.988L224.425 683.497L220.913 683.326L229.143 682.589L229.165 673.905L223.227 673.607L227.446 673.414L176.249 672.87L216.664 672.699L205.732 672.528L229.165 672.193L229.18 665.831L192.799 664.945L215.25 664.61L192.799 664.164L225.512 663.68L220.965 663.457L225.162 662.899L229.188 662.653L229.195 659.945L220.846 659.394L225.623 659.096L192.814 658.285L229.203 657.615L229.218 650.695L192.836 649.802L229.225 649.132L229.232 646.007L170.333 645.062L210.8 644.697L192.851 644.34L229.232 643.67L229.255 636.34L174.664 635.403L224.544 634.912L221.032 634.74L229.262 634.004L229.284 625.319L223.346 625.022L227.566 624.828L176.368 624.285L216.783 624.114L205.851 623.943L229.284 623.608L229.299 617.246L192.918 616.36L215.369 616.025L192.918 615.579L225.631 615.095L221.084 614.872L225.274 614.314L229.307 614.068L229.314 611.359L220.965 610.809L225.742 610.518L192.933 609.7L229.322 609.03L229.366 590.441L150.227 597.354V707.332Z" fill="#E9603E"/>
<path d="M177.336 595.221L150.227 597.379V707.356L210.621 712.446C211.516 707.929 212.152 703.365 212.526 698.776L192.695 698.389L212.586 698.091C212.69 696.804 212.757 695.517 212.794 694.244L170.185 693.641L210.651 693.277L192.71 692.927L212.802 692.629C212.849 689.931 212.73 687.232 212.445 684.548L174.493 683.99L212.325 683.618C212.091 681.691 211.731 679.782 211.246 677.903C210.815 676.251 210.324 674.688 209.758 673.177L176.167 672.872L209.602 672.723C209.602 672.679 209.602 672.642 209.55 672.589L205.65 672.53H209.52C208.604 670.031 207.514 667.6 206.261 665.252L192.717 664.977L206.008 664.783C205.948 664.679 205.889 664.56 205.829 664.463L192.71 664.203L205.576 664.009C204.482 662.075 203.344 660.289 202.116 658.51L192.732 658.324L201.885 658.183C199.846 655.258 197.658 652.55 195.478 649.893L192.754 649.841L195.404 649.796C194.198 648.308 192.985 646.879 191.802 645.398L170.222 645.101L191.378 644.907C188.944 641.954 186.707 638.844 184.68 635.598L174.53 635.442L184.532 635.345C182.436 631.891 180.755 628.202 179.524 624.354L176.234 624.317H179.516C178.83 622.177 178.283 619.994 177.879 617.783C176.666 610.323 176.484 602.731 177.336 595.221V595.221Z" fill="#5C5C5C"/>
<path d="M164.242 644.577C161.667 645.545 158.252 654.824 155.677 654.616C140.928 653.425 126.162 652.597 111.378 652.13C97.4475 651.704 83.5196 651.657 69.5942 651.989C60.7612 652.19 52.0919 653.619 43.3482 654.355C32.0967 655.3 4.72708 634.628 3.49924 629.799C3.26855 628.876 3.20902 627.864 2.53185 627.09C1.78771 627.7 1.6612 628.578 1.39331 629.434C-0.813855 636.276 -0.386973 643.696 2.59034 650.239C5.56765 656.783 10.8809 661.979 17.4892 664.811C25.6748 668.435 34.2547 668.613 42.9761 667.601C53.5579 666.373 63.6559 662.906 74.0665 660.904C79.0225 659.951 83.9711 659.021 89.0238 658.902C99.7841 658.649 114.741 661.551 118.871 672.929C128.969 696.861 148.756 714.467 157.329 715.04C159.271 715.174 160.179 714.765 160.305 712.592C160.67 707.383 161.325 702.256 161.794 697.084C162.761 687.306 164.056 650.21 164.242 644.577Z" fill="#BF1E61"/>
<path d="M160.646 590.926C160.371 590.182 160.46 589.438 159.411 589.207C150.682 587.243 142.571 587.89 135.665 594.416C131.163 598.643 128.715 604.135 125.991 609.485C121.571 618.147 116.548 626.325 107.388 630.917C103.853 632.204 97.8774 635.575 87.3552 631.802C78.7752 628.729 44.6115 607.573 21.1858 612.841C12.6728 614.754 6.00529 618.839 2.50781 627.136C3.13289 651.433 32.0801 655.332 43.3316 654.387C52.0753 653.643 60.7446 652.222 69.5776 652.021C83.5179 651.708 97.4458 651.755 111.361 652.162C126.155 652.608 140.867 654.647 155.66 654.647C163.273 654.647 163.972 653.524 163.972 653.159C164.054 644.207 166.517 607.119 160.646 590.926Z" fill="#9B1B47"/>
<path d="M349.234 579.555C348.518 579.665 347.811 579.832 347.121 580.053C341.74 580.537 336.412 579.064 331.293 582.219H331.047C330.608 582.219 329.023 582.42 328.457 583.022L328.227 583.104C327.132 583.457 326.019 583.751 324.893 583.982C324.648 583.979 324.407 584.048 324.201 584.18C323.994 584.312 323.831 584.502 323.732 584.727V584.727C323.728 584.751 323.728 584.776 323.732 584.801C323.732 584.682 323.777 584.414 323.598 585.247C323.241 586.937 322.608 587.078 325.659 586.55C328.867 585.999 333.198 586.438 336.71 586.371C339.382 586.326 342.246 586.423 344.933 586.371C344.71 586.416 344.39 586.453 344.189 586.475H343.727C342.239 586.475 339.724 586.475 337.633 586.55C330.779 586.713 313.969 587.294 306.989 587.606C299.466 587.911 274.135 588.35 266.612 588.432C265.724 588.422 264.845 588.615 264.044 588.998C266.887 589.043 269.886 589.31 272.699 589.288C283.414 589.214 321.418 589.169 332.119 588.209C335.021 587.949 337.99 588.12 340.9 587.882C344.553 587.83 348.207 587.822 351.853 587.807C351.741 587.862 351.643 587.944 351.571 588.045V588.045H351.511C351.373 587.965 351.217 587.923 351.057 587.923C350.898 587.923 350.741 587.965 350.603 588.045C350.663 588.045 350.559 588.179 349.822 588.641C348.808 589.171 347.696 589.49 346.555 589.578C345.586 589.694 344.607 589.694 343.638 589.578C342.727 589.498 341.843 589.229 341.041 588.79L340.929 588.856H340.892H340.714C339.469 588.959 338.239 589.193 337.045 589.556C336.792 589.641 336.543 589.741 336.301 589.854C335.557 589.764 334.738 589.638 333.942 589.556C333.183 589.47 332.418 589.457 331.657 589.519L331.419 589.556C329.931 589.839 328.591 591.201 327.267 591.617C326.344 591.908 326.612 591.565 325.89 591.23C325.622 588.901 312.689 589.69 311.751 589.742C310.471 589.794 309.028 589.556 309.125 591.394H308.931H308.827L308.291 591.446C304.451 591.848 279.976 592.317 275.467 592.19C275.124 592.138 274.796 592.013 274.505 591.824C274.214 591.636 273.966 591.388 273.778 591.096V591.052C273.703 590.895 273.964 591.297 273.733 590.903C273.242 590.032 271.129 590.33 270.25 590.635C270.25 590.635 270.184 590.598 270.161 590.583C269.759 590.427 269.357 590.255 268.963 590.077C268.157 590.05 267.36 590.251 266.664 590.657C266.214 590.748 265.791 590.942 265.428 591.223H265.317C264.848 591.074 266.061 591.424 264.803 591.037C264.016 590.826 263.212 590.685 262.4 590.613C260.346 590.419 257.764 590.523 256.231 591.483C254.706 591.894 253.129 592.079 251.55 592.034H251.461C250.308 591.969 249.156 592.165 248.09 592.607L248.194 592.704C248.822 593.01 249.512 593.171 250.211 593.173C250.625 593.105 251.047 593.105 251.461 593.173C251.796 593.292 251.974 593.589 251.773 594.296C252.659 595.189 252.815 595.368 254.117 595.152C256.35 594.787 258.962 594.17 261.217 595.264L261.291 595.606C261.544 596.692 262.467 597.027 259.803 596.648C258.523 596.469 255.762 597.027 254.259 597.541C311.059 597.541 259.676 598.099 262.444 598.024C263.702 597.987 264.967 597.928 266.232 597.853V597.913C266.281 598.01 266.318 598.112 266.344 598.218C266.53 598.798 266.85 600.167 267.601 599.974H268.152C269.372 600.026 271.992 599.714 273.711 599.9C274.991 600.041 277.037 601.552 278.176 599.855C278.176 599.788 278.272 599.639 278.6 599.349C279.47 598.605 287.41 598.545 288.929 598.181C288.929 598.181 303.067 598.181 303.194 598.181C305.009 599.297 305.917 598.523 307.703 597.853H307.763L307.971 597.809C308.715 597.608 321.172 596.826 321.909 597.742C323.181 599.327 324.141 598.843 325.63 598.821C327.118 598.798 328.703 598.768 330.199 598.709C331.695 598.649 329.618 597.548 332.134 597.965C334.366 598.352 337.603 598.783 340.059 598.062C340.059 598.062 340.021 598.002 340.059 598.017C340.475 598.285 341.748 599.007 342.113 598.806C344.256 597.6 347.046 597.898 348.907 597.861C350.276 597.861 350.64 597.965 351.37 596.871C351.28 596.871 351.332 596.871 351.37 596.871C352.761 595.889 354.063 595.956 355.619 595.866C356.127 595.879 356.632 595.793 357.107 595.613C359.898 594.43 358.201 593.924 356.661 593.619C355.418 593.373 350.707 594.72 351.6 591.617C353.312 592.176 355.148 592.233 356.891 591.781C357.539 591.617 358.7 591.282 359.124 591.171C362.041 591.342 364.682 590.814 367.518 591.007C366.593 590.309 365.538 589.803 364.415 589.519C363.476 589.31 362.518 589.203 361.557 589.199C361.33 589.264 361.118 589.373 360.932 589.519C360.383 589.945 359.78 590.295 359.139 590.561C359.139 590.561 359.139 590.561 359.139 590.561C359.08 590.542 359.023 590.52 358.967 590.494C358.711 590.42 358.473 590.292 358.271 590.117C358.069 589.942 357.908 589.725 357.799 589.482C357.754 589.391 357.719 589.297 357.695 589.199C357.631 588.897 357.502 588.613 357.317 588.366C357.132 588.119 356.895 587.916 356.623 587.77C358.685 587.77 360.746 587.77 362.807 587.77C366.528 587.718 370.353 587.681 374.118 587.666C374.155 587.697 374.198 587.719 374.245 587.733C374.372 587.802 374.516 587.832 374.66 587.82C374.804 587.808 374.942 587.755 375.056 587.666H401.093C401.183 587.716 401.278 587.756 401.376 587.785C401.699 587.894 402.044 587.925 402.381 587.874C402.619 587.815 402.604 587.733 402.783 587.666H415.433C416.897 587.706 418.362 587.589 419.801 587.316C414.533 587.19 409.22 587.264 403.929 587.242C405.7 586.81 407.478 586.498 409.227 585.917H422.369C421.766 585.996 421.185 586.19 420.657 586.49L453.824 587.703C453.812 587.767 453.795 587.829 453.771 587.889C452.893 588.075 451.718 588.351 450.914 588.507C450.237 588.641 450.133 588.603 449.701 589.191C449.701 589.191 449.701 589.191 449.664 589.251C449.491 589.393 449.307 589.52 449.113 589.63H550.704C550.704 589.69 550.667 589.742 550.652 589.802C548.568 596.655 545.271 602.794 541.581 608.628L541.923 608.472C543.738 607.71 545.509 606.848 547.229 605.89C547.288 605.853 547.35 605.821 547.415 605.793V605.793V605.868C547.449 605.832 547.489 605.801 547.534 605.778V605.778H547.623H547.675V605.711H547.72C548.895 605.071 550.012 604.439 551.068 603.732C551.813 603.248 552.557 602.772 553.197 602.244C553.837 601.715 554.685 601.194 555.325 600.629L556.292 599.825C556.618 599.568 556.931 599.295 557.23 599.007C557.914 598.404 558.562 597.779 559.187 597.183C559.187 597.183 559.187 597.183 559.187 597.131L559.247 597.079L559.299 597.02C559.812 596.506 560.296 595.993 560.72 595.487C560.973 595.226 561.204 594.973 561.405 594.743C561.605 594.512 561.829 594.229 562.03 593.999C562.454 593.485 562.848 593.001 563.22 592.51C563.592 592.019 563.964 591.491 564.269 591.022C564.575 590.553 564.82 590.211 565.073 589.809C566.535 587.535 567.752 585.113 568.705 582.583C568.816 582.301 568.928 582.018 569.017 581.765C569.181 581.251 569.3 580.827 569.382 580.515V580.262C569.396 580.205 569.396 580.147 569.382 580.09C569.385 580.048 569.385 580.006 569.382 579.964C569.385 579.929 569.385 579.894 569.382 579.86C569.393 579.815 569.411 579.773 569.434 579.733V579.733V579.674C569.493 579.584 569.493 579.562 569.493 579.562L349.234 579.555ZM330.63 595.39C324.774 595.145 309.184 595.665 303.313 595.993C302.881 596.09 289.561 596.209 289.137 596.372C287.001 596.127 279.805 596.469 278.354 594.028C279.924 594.118 286.294 594.162 287.864 594.073C291.637 593.85 318.173 593.731 321.849 594.14C324.466 594.433 327.111 594.34 329.7 593.865C334.076 593.612 338.183 593.493 342.194 590.665C342.232 590.717 342.306 590.665 342.343 590.739C342.38 590.814 342.343 591 342.395 591.074C342.375 591.105 342.35 591.133 342.321 591.156V591.156C342.284 591.208 342.194 591.32 342.016 591.528C341.22 592.51 341.688 593.946 343.504 593.515C339.151 594.951 334.932 594.698 330.615 595.39H330.63ZM457.775 586.855L457.663 586.907L457.485 586.996H457.418C457.418 586.996 457.418 586.996 457.373 586.959C457.142 586.818 456.793 586.959 456.525 586.959C455.676 587.041 454.821 587.041 453.972 586.959L452.834 586.728C449.336 586.029 442.877 586.379 438.234 586.304C434.513 586.252 429.304 585.91 425.42 585.962C428.061 585.917 430.852 585.962 433.531 585.962C434.695 585.937 435.855 585.795 436.991 585.538H437.095H438.68C438.933 585.538 438.807 585.538 438.807 585.538C439.31 585.715 439.832 585.837 440.362 585.902C446.159 585.902 451.941 585.902 457.738 585.902C458.261 585.836 458.776 585.721 459.278 585.56C459.181 585.56 459.047 585.441 459.643 585.619C459.926 585.701 460.342 585.887 460.811 586.088C459.772 586.246 458.75 586.503 457.76 586.855H457.775ZM464.792 585.523C464.786 585.494 464.77 585.467 464.748 585.448C464.855 585.291 464.977 585.144 465.112 585.009C465.961 584.146 470.001 584.153 470.946 585.686C469.614 585.262 467.211 585.285 464.792 585.523V585.523ZM417.323 589.377L416.914 589.281C415.057 588.916 413.155 588.835 411.273 589.043C411.214 589.043 411.229 589.043 411.221 589.043C410.935 589.08 410.645 589.08 410.358 589.043C409.904 588.953 409.368 588.514 408.989 589.043C403.862 589.162 379.297 589.273 374.17 589.385C373.3 589.065 372.682 588.976 372.02 589.638H422.711C422.063 589.563 421.423 589.482 420.783 589.377C419.627 589.464 418.465 589.464 417.308 589.377H417.323Z" fill="url(#paint8_linear_1770_41586)"/>
<path style="mix-blend-mode:hard-light" opacity="0.66" d="M544.751 612.098C543.136 615.901 507 698.196 390.579 706.136C377.519 706.664 278.473 705.34 278.473 705.34L278.793 705.295C279.537 705.228 279.828 705.191 279.924 705.191H280.029C281.359 705.235 282.691 705.165 284.01 704.982C283.266 704.841 283.184 704.514 285.595 704.119C286.525 703.97 287.827 703.807 289.613 703.643C290.536 703.643 299.466 703.546 299.987 703.338C300.096 703.296 300.212 703.273 300.329 703.271L303.752 703.085H303.856L305.039 703.003C313.448 702.46 314.773 701.909 325.95 700.904C326.158 700.904 326.396 700.904 326.694 700.837L321.269 700.629C312.034 700.666 311 700.666 305.233 700.666C309.519 700.629 310.107 700.562 318.144 700.562C308.328 700.257 298.007 700.019 289.777 699.721H289.33C280.259 699.409 281.651 698.977 281.963 698.508C281.969 698.486 281.969 698.463 281.963 698.441C282.015 698.307 281.911 698.181 281.279 698.069C279.291 697.822 277.291 697.695 275.288 697.69C275.013 697.69 284.106 697.69 282.112 697.69C282.062 697.648 281.999 697.625 281.934 697.623C279.924 697.586 277.871 697.563 275.787 697.563C274.244 697.563 272.696 697.563 271.143 697.563C271.59 697.489 271.181 697.489 271.315 697.422C270.526 697.422 269.774 697.422 269.015 697.422C269.052 697.43 269.09 697.43 269.127 697.422C266.805 697.288 264.506 697.184 262.184 696.983C263.248 697.05 264.342 697.05 265.376 697.05C263.419 696.306 261.388 696.499 259.326 696.365C259.076 696.336 258.827 696.291 258.582 696.231C258.508 696.231 258.545 696.298 258.508 696.298C258.221 696.284 257.935 696.249 257.652 696.194C260.787 695.835 263.948 695.765 267.095 695.986L268.643 696.09C268.606 696.053 268.576 696.053 268.502 696.015C269.127 696.015 269.707 696.015 270.392 696.015C269.245 695.641 268.077 695.332 266.894 695.093C266.135 694.944 265.376 694.817 264.617 694.713C260.949 694.215 257.325 694.207 253.217 693.753C252.837 693.736 252.459 693.689 252.086 693.612V693.374C252.296 693.381 252.504 693.404 252.711 693.441C254.638 692.663 256.674 692.188 258.746 692.034C258.404 692.31 258.002 692.548 257.689 692.86C258.707 692.754 259.707 692.519 260.666 692.161C261.66 691.77 262.562 691.177 263.315 690.419C262.318 690.248 261.321 690.286 260.338 690.181C261.856 689.77 263.271 689.045 264.491 688.053C266.924 688.187 269.439 688.738 271.568 686.989C274.36 686.946 277.147 686.717 279.91 686.304C276.784 686.267 271.568 685.925 273.696 685.344C271.806 684.995 273.086 684.794 274.767 684.861C275.66 683.826 276.62 683.826 277.826 683.997C278.157 683.909 278.464 683.746 278.722 683.52C278.98 683.294 279.183 683.012 279.314 682.695C278.764 682.695 278.213 682.695 277.662 682.695C275.534 682.695 283.496 682.837 281.383 682.509C285.394 681.892 271.657 681.274 275.742 681.17C277.461 681.132 280.349 682.338 281.792 680.82C283.504 680.932 275.095 681.333 276.725 681.021C277.137 680.946 277.539 680.824 277.923 680.656C277.781 680.656 277.372 680.656 277.268 680.656C277.193 680.662 277.119 680.662 277.045 680.656C276.631 680.598 276.23 680.467 275.861 680.269C275.646 680.12 275.571 679.942 275.861 679.741C277.35 678.677 279.262 679.086 280.907 679.324C280.754 679.485 280.582 679.625 280.393 679.741C284.27 679.637 288.117 679.466 292.002 679.257L295.723 679.049C295.961 678.268 294.234 677.784 293.937 677.613C292.716 677.687 291.496 677.762 290.275 677.814C287.105 677.989 283.925 677.854 280.78 677.412C281.808 677.098 282.854 676.849 283.913 676.668V676.668C284.877 676.487 285.858 676.414 286.838 676.452C290.067 676.794 288.765 676.452 288.452 675.388C288.452 675.336 288.452 675.284 288.452 675.246C288.448 675.192 288.448 675.137 288.452 675.083C288.452 675.083 288.415 675.083 288.415 675.083C285.878 673.847 283.057 674.599 280.587 675.016C279.143 675.254 279.009 675.016 277.975 674.19C278.354 672.783 277.186 673.021 276.226 673.088C275.78 673.088 284.456 672.917 284.077 672.605C284.01 672.605 283.973 672.538 283.943 672.538C285.208 671.987 276.293 671.957 277.632 671.957C279.361 672.023 281.089 671.815 282.752 671.34V671.34C282.105 672.404 283.578 672.746 285.022 672.828C284.746 672.932 286.942 673.036 290.476 673.103C290.507 673.002 290.52 672.896 290.514 672.791C290.96 672.858 293.059 672.895 295.187 672.932C294.778 672.891 294.387 672.748 294.048 672.515C293.899 672.412 293.781 672.271 293.706 672.106L295.745 672.233C297.717 672.352 299.808 672.448 301.899 672.538C304.198 672.634 306.513 672.716 308.678 672.791C308.176 672.893 307.692 673.068 307.242 673.312C307.242 673.312 307.242 673.312 307.242 673.379C308.172 673.379 309.058 673.379 309.951 673.379H307.309C307.524 673.61 307.753 673.829 307.994 674.033C307.309 673.996 306.55 673.996 305.865 673.966C305.978 673.77 306.07 673.564 306.141 673.349H304.957C305.367 673.349 305.813 673.349 306.193 673.349C305.3 673.207 304.407 673.073 303.514 672.895C303.332 673.022 303.18 673.187 303.067 673.379H302.167C299.503 673.341 296.958 673.282 294.651 673.252C295.036 673.321 295.414 673.423 295.782 673.557L298.015 673.661C296.721 673.728 295.424 673.728 294.13 673.661V673.661C294.43 674.071 294.789 674.434 295.194 674.74L295.462 674.934H295.135C293.676 674.982 292.215 674.89 290.774 674.658C291.595 674.91 292.441 675.067 293.297 675.127L294.785 675.276C294.635 675.404 294.515 675.563 294.431 675.741C294.348 675.919 294.304 676.114 294.301 676.31C294.878 676.199 295.463 676.14 296.05 676.132C297.088 676.184 298.122 676.301 299.146 676.482C299.507 676.54 299.863 676.63 300.21 676.749C300.478 676.273 299.466 675.931 297.977 675.693C298.937 675.827 299.934 675.827 300.894 675.894C301.378 675.76 301.825 675.618 302.308 675.514C306.773 675.239 311.238 674.934 315.703 674.725C313.575 674.763 311.446 674.83 309.348 674.763C310.896 674.591 312.436 674.45 313.984 674.316C314.044 674.302 314.101 674.279 314.155 674.249H315.256C317.965 674.041 320.756 673.907 323.502 673.661L318.211 673.557C318.955 673.49 319.751 673.423 320.547 673.289C321.745 673.215 319.803 673.148 316.321 673.044C322.914 672.664 329.47 673.148 336.033 673.453C340.356 673.661 344.591 673.699 348.914 673.699C349.457 673.699 350.008 673.699 350.559 673.699L350.12 673.632C352.672 673.345 355.238 673.196 357.807 673.185C357.464 673.87 356.638 673.632 356.058 673.765C356.142 673.818 356.235 673.854 356.333 673.87H359.012C359.146 673.557 358.908 673.393 358.737 673.125H371.164C369.415 672.917 368.835 672.642 366.803 672.441C364.271 672.176 361.72 672.153 359.183 672.374C359.224 672.259 359.236 672.136 359.218 672.015C359.199 671.894 359.152 671.78 359.079 671.682C358.633 671.682 358.186 671.682 357.777 671.682C357.318 671.833 356.844 671.935 356.363 671.987C356.638 671.712 356.951 671.749 357.293 671.712C355.277 671.637 353.252 671.578 351.228 671.518C351.005 671.287 350.801 671.038 350.618 670.774C351.801 670.186 352.278 670.03 353.595 670.447C354.595 670.686 355.629 670.759 356.653 670.662C363.425 669.97 370.152 670.521 376.879 670.878C380.816 671.087 404.107 671.124 408.044 671.116C408.557 671.116 409.056 671.116 409.532 671.116L409.115 671.042C411.453 670.776 413.803 670.632 416.155 670.61C415.798 671.354 415.076 671.079 414.533 671.198C414.607 671.198 414.674 671.325 414.763 671.325C415.589 671.325 416.408 671.325 417.227 671.325C417.36 671.012 417.137 670.826 417.003 670.581C420.784 670.581 424.512 670.581 428.322 670.581C426.752 670.35 426.208 670.089 424.385 669.874C422.07 669.607 419.733 669.579 417.413 669.792C417.465 669.682 417.488 669.56 417.478 669.439C417.469 669.317 417.429 669.201 417.36 669.1L416.162 669.055C415.75 669.215 415.316 669.316 414.875 669.353C415.135 669.1 415.433 669.144 415.738 669.115C413.417 669.005 411.095 668.921 408.773 668.862C408.97 669.03 409.115 669.253 409.19 669.502C408.948 669.206 408.632 668.98 408.274 668.847C406.25 668.795 383.375 668.72 381.679 668.653C379.982 668.586 379.655 668.534 378.397 668.415C377.422 668.326 378.829 668.259 378.903 668.251C378.159 668.199 377.326 668.184 376.537 668.147C374.84 668.065 373.143 668.013 371.447 667.976C371.243 667.686 371.153 667.331 371.194 666.979C365.486 666.979 359.86 666.979 354.16 667.076C353.643 667.033 353.138 666.894 352.672 666.666L356.214 666.458L346.942 666.19L336.933 665.84H372.652H372.809C373.902 665.907 375.123 665.84 376.269 665.84C380.071 666.436 403.371 666.495 407.195 666.584C410.172 666.659 413.052 666.741 415.999 666.8C416.185 666.8 416.371 666.8 416.564 666.756C416.568 666.684 416.568 666.612 416.564 666.54C416.688 666.581 416.802 666.647 416.899 666.733C420.769 666.396 424.636 666.088 428.5 665.811H390.787C410.135 665.811 429.066 660.051 443.934 648.881V648.844C446.14 647.192 448.251 645.418 450.259 643.531C454.337 639.721 457.775 635.628 459.806 631.453L461.481 631.074C460.417 634.839 457.165 641.179 448.272 651.315C446.107 653.815 443.562 656.524 440.622 659.5C444.867 657.951 448.997 656.106 452.983 653.979C463.11 648.591 475.873 639.513 476.565 627.629C476.632 626.481 476.584 625.329 476.423 624.191C473.409 602.29 463.103 598.934 463.103 598.934C463.103 598.934 472.598 597.803 481.171 617.129C482.44 619.952 483.335 622.929 483.835 625.984C486.551 643.516 473.491 656.166 466.288 661.614C464.869 662.681 463.397 663.675 461.875 664.59C462.24 664.486 464.413 663.801 467.91 662.499C480.278 657.871 508.942 645.495 529.622 623.528C532.486 620.481 535.165 617.266 537.644 613.899C538.641 613.698 539.646 613.467 540.621 613.2C540.648 613.204 540.675 613.204 540.702 613.2L541.447 613.006C541.819 612.902 542.191 612.798 542.578 612.679C543.225 612.493 543.873 612.284 544.527 612.068H544.788L544.751 612.098Z" fill="url(#paint9_linear_1770_41586)"/>
<path style="mix-blend-mode:hard-light" opacity="0.66" d="M552.979 579.848C552.979 579.848 552.979 580.257 552.905 581.046C552.922 581.101 552.922 581.161 552.905 581.217C552.786 582.794 552.481 585.719 551.781 589.648C551.283 592.461 550.583 595.795 549.601 599.53C549.102 601.435 548.522 603.444 547.867 605.543C547.845 605.537 547.822 605.537 547.8 605.543V605.543C547.763 605.575 547.735 605.616 547.718 605.662H547.629V605.602C547.583 605.633 547.536 605.66 547.487 605.684V605.684C545.579 606.768 543.611 607.745 541.594 608.609L541.653 608.52C545.374 602.685 548.641 596.546 550.724 589.693C550.724 589.633 550.724 589.581 550.776 589.522C551.727 586.35 552.462 583.118 552.979 579.848V579.848Z" fill="url(#paint10_linear_1770_41586)"/>
<defs>
<linearGradient id="paint0_linear_1770_41586" x1="87.2773" y1="219.152" x2="532.261" y2="219.152" gradientUnits="userSpaceOnUse">
<stop stop-color="#80CBD6"/>
<stop offset="0.13" stop-color="#7BC4D1"/>
<stop offset="0.32" stop-color="#6EAFC4"/>
<stop offset="0.56" stop-color="#598DAF"/>
<stop offset="0.82" stop-color="#3C5F92"/>
<stop offset="1" stop-color="#253B7B"/>
</linearGradient>
<linearGradient id="paint1_linear_1770_41586" x1="87.2773" y1="147.668" x2="562.004" y2="147.668" gradientUnits="userSpaceOnUse">
<stop stop-color="#5E9AB5"/>
<stop offset="0.14" stop-color="#5993B0"/>
<stop offset="0.35" stop-color="#4D7EA4"/>
<stop offset="0.4" stop-color="#4978A0"/>
<stop offset="0.74" stop-color="#2A457C"/>
<stop offset="0.75" stop-color="#29437B"/>
<stop offset="1" stop-color="#263469"/>
</linearGradient>
<linearGradient id="paint2_linear_1770_41586" x1="88.766" y1="330.164" x2="564.952" y2="330.164" gradientUnits="userSpaceOnUse">
<stop stop-color="#8461A6"/>
<stop offset="0.14" stop-color="#7D5CA3"/>
<stop offset="0.36" stop-color="#68509A"/>
<stop offset="0.61" stop-color="#473C8D"/>
<stop offset="0.75" stop-color="#322F84"/>
<stop offset="1" stop-color="#253B7B"/>
</linearGradient>
<linearGradient id="paint3_linear_1770_41586" x1="509.566" y1="654.315" x2="123.757" y2="417.796" gradientUnits="userSpaceOnUse">
<stop stop-color="#F8E820"/>
<stop offset="0.05" stop-color="#F7E221"/>
<stop offset="0.11" stop-color="#F6D224"/>
<stop offset="0.19" stop-color="#F3B82A"/>
<stop offset="0.27" stop-color="#F09332"/>
<stop offset="0.35" stop-color="#EB633B"/>
<stop offset="0.39" stop-color="#E94C40"/>
<stop offset="0.54" stop-color="#C65363"/>
<stop offset="0.72" stop-color="#A25B87"/>
<stop offset="0.86" stop-color="#8C5F9E"/>
<stop offset="0.96" stop-color="#8461A6"/>
</linearGradient>
<linearGradient id="paint4_linear_1770_41586" x1="85.5664" y1="434.797" x2="564.952" y2="434.797" gradientUnits="userSpaceOnUse">
<stop stop-color="#8461A6"/>
<stop offset="0.19" stop-color="#7D5CA3"/>
<stop offset="0.48" stop-color="#68509A"/>
<stop offset="0.82" stop-color="#473C8D"/>
<stop offset="1" stop-color="#322F84"/>
</linearGradient>
<linearGradient id="paint5_linear_1770_41586" x1="238.626" y1="616.518" x2="871.521" y2="616.518" gradientUnits="userSpaceOnUse">
<stop stop-color="#E94C40"/>
<stop offset="0.22" stop-color="#EE7C36"/>
<stop offset="0.47" stop-color="#F2AA2D"/>
<stop offset="0.7" stop-color="#F5CC26"/>
<stop offset="0.88" stop-color="#F7E122"/>
<stop offset="1" stop-color="#F8E820"/>
</linearGradient>
<linearGradient id="paint6_linear_1770_41586" x1="228.488" y1="657.201" x2="567.58" y2="657.201" gradientUnits="userSpaceOnUse">
<stop stop-color="#E94C40"/>
<stop offset="0.22" stop-color="#EE7C36"/>
<stop offset="0.47" stop-color="#F2AA2D"/>
<stop offset="0.7" stop-color="#F5CC26"/>
<stop offset="0.88" stop-color="#F7E122"/>
<stop offset="1" stop-color="#F8E820"/>
</linearGradient>
<linearGradient id="paint7_linear_1770_41586" x1="231.935" y1="660.186" x2="567.574" y2="660.186" gradientUnits="userSpaceOnUse">
<stop stop-color="#E94C40"/>
<stop offset="0.22" stop-color="#EE7C36"/>
<stop offset="0.47" stop-color="#F2AA2D"/>
<stop offset="0.7" stop-color="#F5CC26"/>
<stop offset="0.88" stop-color="#F7E122"/>
<stop offset="1" stop-color="#F8E820"/>
</linearGradient>
<linearGradient id="paint8_linear_1770_41586" x1="247.926" y1="594.095" x2="860.826" y2="594.095" gradientUnits="userSpaceOnUse">
<stop stop-color="#E94C40"/>
<stop offset="0.22" stop-color="#EE7C36"/>
<stop offset="0.47" stop-color="#F2AA2D"/>
<stop offset="0.7" stop-color="#F5CC26"/>
<stop offset="0.88" stop-color="#F7E122"/>
<stop offset="1" stop-color="#F8E820"/>
</linearGradient>
<linearGradient id="paint9_linear_1770_41586" x1="252.123" y1="652.639" x2="549.312" y2="652.639" gradientUnits="userSpaceOnUse">
<stop stop-color="#E94C40"/>
<stop offset="0.22" stop-color="#EE7C36"/>
<stop offset="0.47" stop-color="#F2AA2D"/>
<stop offset="0.7" stop-color="#F5CC26"/>
<stop offset="0.88" stop-color="#F7E122"/>
<stop offset="1" stop-color="#F8E820"/>
</linearGradient>
<linearGradient id="paint10_linear_1770_41586" x1="74.621" y1="594.292" x2="552.979" y2="594.292" gradientUnits="userSpaceOnUse">
<stop stop-color="#E94C40"/>
<stop offset="0.22" stop-color="#EE7C36"/>
<stop offset="0.47" stop-color="#F2AA2D"/>
<stop offset="0.7" stop-color="#F5CC26"/>
<stop offset="0.88" stop-color="#F7E122"/>
<stop offset="1" stop-color="#F8E820"/>
</linearGradient>
</defs>
</svg>
